<svg xmlns="http://www.w3.org/2000/svg" viewBox="0 0 800 440">
  <defs>
    <style>
      .mono { font-family: 'Menlo', 'Monaco', 'Courier New', monospace; }
    </style>
  </defs>

  <!-- Window background -->
  <rect width="800" height="440" rx="10" fill="#1e1e1e"/>

  <!-- Title bar -->
  <rect width="800" height="36" rx="10" fill="#2d2d2d"/>
  <rect y="26" width="800" height="10" fill="#2d2d2d"/>

  <!-- Traffic lights -->
  <circle cx="20" cy="18" r="6" fill="#ff5f57"/>
  <circle cx="40" cy="18" r="6" fill="#febc2e"/>
  <circle cx="60" cy="18" r="6" fill="#28c840"/>

  <!-- Title text -->
  <text x="400" y="22" fill="#9d9d9d" font-size="11" text-anchor="middle" class="mono">Terminal — theheatsheet.com</text>

  <!-- Prompt -->
  <text x="16" y="62" font-size="12.5" class="mono">
    <tspan fill="#28c840">~ $</tspan>
    <tspan fill="#e0e0e0"> curl "/api/grades?chamber=senate&amp;format=table"</tspan>
  </text>

  <!-- Response header -->
  <text x="28" y="90" fill="#888" font-size="11" class="mono">THE HEAT SHEET — Market Grades</text>
  <text x="28" y="106" fill="#888" font-size="11" class="mono">2026-02-28              34 races</text>

  <!-- Table drawn with SVG shapes -->
  <!-- Table background -->
  <rect x="24" y="118" width="752" height="18" rx="3" fill="#282828"/>
  <!-- Header row -->
  <text y="132" font-size="10.5" class="mono" fill="#e0e0e0" font-weight="bold">
    <tspan x="32">Race</tspan>
    <tspan x="142">Grade</tspan>
    <tspan x="202">Liquidity</tspan>
    <tspan x="340">Vol</tspan>
    <tspan x="400">Spr</tspan>
    <tspan x="460">OI</tspan>
    <tspan x="520">Rating</tspan>
    <tspan x="640">Margin</tspan>
  </text>

  <!-- Divider -->
  <line x1="24" y1="138" x2="776" y2="138" stroke="#3a3a3a" stroke-width="1"/>

  <!-- Row 1: Alaska -->
  <text y="156" font-size="10.5" class="mono">
    <tspan x="32" fill="#c8c8c8">Alaska</tspan>
    <tspan x="142" fill="#28c840">A</tspan>
    <tspan x="340" fill="#999">89</tspan>
    <tspan x="400" fill="#999">100</tspan>
    <tspan x="460" fill="#999">89</tspan>
    <tspan x="520" fill="#febc2e">Tossup</tspan>
    <tspan x="640" fill="#c8c8c8">R+1</tspan>
  </text>
  <!-- Liquidity bar Alaska -->
  <rect x="202" y="147" width="117" height="8" rx="2" fill="#333"/>
  <rect x="202" y="147" width="110" height="8" rx="2" fill="#28c840"/>

  <!-- Divider -->
  <line x1="24" y1="164" x2="776" y2="164" stroke="#2a2a2a" stroke-width="0.5"/>

  <!-- Row 2: Ohio -->
  <text y="180" font-size="10.5" class="mono">
    <tspan x="32" fill="#c8c8c8">Ohio</tspan>
    <tspan x="142" fill="#28c840">A</tspan>
    <tspan x="340" fill="#999">86</tspan>
    <tspan x="400" fill="#999">80</tspan>
    <tspan x="460" fill="#999">89</tspan>
    <tspan x="520" fill="#febc2e">Tossup</tspan>
    <tspan x="640" fill="#c8c8c8">R+1</tspan>
  </text>
  <rect x="202" y="171" width="117" height="8" rx="2" fill="#333"/>
  <rect x="202" y="171" width="98" height="8" rx="2" fill="#28c840"/>

  <line x1="24" y1="188" x2="776" y2="188" stroke="#2a2a2a" stroke-width="0.5"/>

  <!-- Row 3: Iowa -->
  <text y="204" font-size="10.5" class="mono">
    <tspan x="32" fill="#c8c8c8">Iowa</tspan>
    <tspan x="142" fill="#28c840">A</tspan>
    <tspan x="340" fill="#999">82</tspan>
    <tspan x="400" fill="#999">80</tspan>
    <tspan x="460" fill="#999">85</tspan>
    <tspan x="520" fill="#c8c8c8">Lean R</tspan>
    <tspan x="640" fill="#c8c8c8">R+4</tspan>
  </text>
  <rect x="202" y="195" width="117" height="8" rx="2" fill="#333"/>
  <rect x="202" y="195" width="96" height="8" rx="2" fill="#28c840"/>

  <line x1="24" y1="212" x2="776" y2="212" stroke="#2a2a2a" stroke-width="0.5"/>

  <!-- Row 4: Texas -->
  <text y="228" font-size="10.5" class="mono">
    <tspan x="32" fill="#c8c8c8">Texas</tspan>
    <tspan x="142" fill="#28c840">A</tspan>
    <tspan x="340" fill="#999">99</tspan>
    <tspan x="400" fill="#999">100</tspan>
    <tspan x="460" fill="#999">99</tspan>
    <tspan x="520" fill="#c8c8c8">Lean R</tspan>
    <tspan x="640" fill="#c8c8c8">R+4</tspan>
  </text>
  <rect x="202" y="219" width="117" height="8" rx="2" fill="#333"/>
  <rect x="202" y="219" width="117" height="8" rx="2" fill="#28c840"/>

  <line x1="24" y1="236" x2="776" y2="236" stroke="#2a2a2a" stroke-width="0.5"/>

  <!-- Row 5: Maine -->
  <text y="252" font-size="10.5" class="mono">
    <tspan x="32" fill="#c8c8c8">Maine</tspan>
    <tspan x="142" fill="#28c840">A</tspan>
    <tspan x="340" fill="#999">91</tspan>
    <tspan x="400" fill="#999">100</tspan>
    <tspan x="460" fill="#999">85</tspan>
    <tspan x="520" fill="#c8c8c8">Lean D</tspan>
    <tspan x="640" fill="#c8c8c8">D+5</tspan>
  </text>
  <rect x="202" y="243" width="117" height="8" rx="2" fill="#333"/>
  <rect x="202" y="243" width="110" height="8" rx="2" fill="#28c840"/>

  <line x1="24" y1="260" x2="776" y2="260" stroke="#2a2a2a" stroke-width="0.5"/>

  <!-- Row 6: Michigan -->
  <text y="276" font-size="10.5" class="mono">
    <tspan x="32" fill="#c8c8c8">Michigan</tspan>
    <tspan x="142" fill="#28c840">A</tspan>
    <tspan x="340" fill="#999">93</tspan>
    <tspan x="400" fill="#999">100</tspan>
    <tspan x="460" fill="#999">82</tspan>
    <tspan x="520" fill="#c8c8c8">Lean D</tspan>
    <tspan x="640" fill="#c8c8c8">D+6</tspan>
  </text>
  <rect x="202" y="267" width="117" height="8" rx="2" fill="#333"/>
  <rect x="202" y="267" width="108" height="8" rx="2" fill="#28c840"/>

  <line x1="24" y1="284" x2="776" y2="284" stroke="#2a2a2a" stroke-width="0.5"/>

  <!-- Row 7: Georgia -->
  <text y="300" font-size="10.5" class="mono">
    <tspan x="32" fill="#c8c8c8">Georgia</tspan>
    <tspan x="142" fill="#28c840">A</tspan>
    <tspan x="340" fill="#999">85</tspan>
    <tspan x="400" fill="#999">80</tspan>
    <tspan x="460" fill="#999">78</tspan>
    <tspan x="520" fill="#c8c8c8">Likely R</tspan>
    <tspan x="640" fill="#c8c8c8">R+10</tspan>
  </text>
  <rect x="202" y="291" width="117" height="8" rx="2" fill="#333"/>
  <rect x="202" y="291" width="93" height="8" rx="2" fill="#28c840"/>

  <!-- Fade-out rows indicator -->
  <rect x="24" y="312" width="752" height="24" fill="url(#fadeout)"/>
  <defs>
    <linearGradient id="fadeout" x1="0" y1="0" x2="0" y2="1">
      <stop offset="0%" stop-color="#1e1e1e" stop-opacity="0"/>
      <stop offset="100%" stop-color="#1e1e1e" stop-opacity="1"/>
    </linearGradient>
  </defs>
  <text x="400" y="328" fill="#555" font-size="10" class="mono" text-anchor="middle">... 27 more races</text>

  <!-- Footer text -->
  <text x="28" y="354" fill="#555" font-size="9.5" class="mono">Vol/Spr/OI = percentile (0-100)    Margin: R+5 = Republican +5pts</text>

  <!-- Next prompt with blinking cursor -->
  <text x="16" y="378" font-size="12.5" class="mono">
    <tspan fill="#28c840">~ $</tspan>
    <tspan fill="#28c840" opacity="0.7"> _</tspan>
  </text>

  <!-- Suggestion chips bar -->
  <rect y="394" width="800" height="46" rx="0" fill="#252525"/>
  <rect y="430" width="800" height="10" rx="10" fill="#252525"/>
  <line y1="394" x1="0" y2="394" x2="800" stroke="#333" stroke-width="1"/>

  <rect x="12" y="403" width="88" height="24" rx="5" fill="#333" stroke="#444" stroke-width="0.5"/>
  <text x="56" y="419" fill="#999" font-size="9.5" text-anchor="middle" class="mono">Senate</text>

  <rect x="106" y="403" width="80" height="24" rx="5" fill="#333" stroke="#444" stroke-width="0.5"/>
  <text x="146" y="419" fill="#999" font-size="9.5" text-anchor="middle" class="mono">Tossups</text>

  <rect x="192" y="403" width="64" height="24" rx="5" fill="#333" stroke="#444" stroke-width="0.5"/>
  <text x="224" y="419" fill="#999" font-size="9.5" text-anchor="middle" class="mono">Iowa</text>

  <rect x="262" y="403" width="88" height="24" rx="5" fill="#333" stroke="#444" stroke-width="0.5"/>
  <text x="306" y="419" fill="#999" font-size="9.5" text-anchor="middle" class="mono">Single race</text>

  <rect x="356" y="403" width="72" height="24" rx="5" fill="#333" stroke="#444" stroke-width="0.5"/>
  <text x="392" y="419" fill="#999" font-size="9.5" text-anchor="middle" class="mono">A-graded</text>

  <rect x="434" y="403" width="56" height="24" rx="5" fill="#333" stroke="#444" stroke-width="0.5"/>
  <text x="462" y="419" fill="#999" font-size="9.5" text-anchor="middle" class="mono">JSON</text>
</svg>
