<?xml version='1.0' encoding='utf-8'?>
<svg xmlns="http://www.w3.org/2000/svg" viewBox="20 600 400 270" preserveAspectRatio="xMidYMid meet">
  <defs>
    <clipPath id="776b199dab">
      <path d="M 37.5 620.871094 L 426 620.871094 L 426 902.921875 L 37.5 902.921875 Z M 37.5 620.871094 " clip-rule="nonzero" />
    </clipPath>
    <clipPath id="6a7b1d8137">
      <path d="M 115.5 620.871094 L 347.378906 620.871094 C 390.457031 620.871094 425.378906 655.792969 425.378906 698.871094 L 425.378906 824.921875 C 425.378906 868 390.457031 902.921875 347.378906 902.921875 L 115.5 902.921875 C 72.421875 902.921875 37.5 868 37.5 824.921875 L 37.5 698.871094 C 37.5 655.792969 72.421875 620.871094 115.5 620.871094 Z M 115.5 620.871094 " clip-rule="nonzero" />
    </clipPath>
    <clipPath id="363d5320ad">
      <path d="M 0.5 0.871094 L 388.519531 0.871094 L 388.519531 282.921875 L 0.5 282.921875 Z M 0.5 0.871094 " clip-rule="nonzero" />
    </clipPath>
    <clipPath id="abc9f03b2b">
      <path d="M 78.5 0.871094 L 310.378906 0.871094 C 353.457031 0.871094 388.378906 35.792969 388.378906 78.871094 L 388.378906 204.921875 C 388.378906 248 353.457031 282.921875 310.378906 282.921875 L 78.5 282.921875 C 35.421875 282.921875 0.5 248 0.5 204.921875 L 0.5 78.871094 C 0.5 35.792969 35.421875 0.871094 78.5 0.871094 Z M 78.5 0.871094 " clip-rule="nonzero" />
    </clipPath>
    <clipPath id="105e9d922b">
      <rect x="0" width="389" y="0" height="283" />
    </clipPath>
    <clipPath id="1a08a38c6d">
      <path d="M 65.550781 677.332031 L 118 677.332031 L 118 846.832031 L 65.550781 846.832031 Z M 65.550781 677.332031 " clip-rule="nonzero" />
    </clipPath>
    <clipPath id="19a66b1e82">
      <path d="M 341 677.332031 L 393.292969 677.332031 L 393.292969 846.832031 L 341 846.832031 Z M 341 677.332031 " clip-rule="nonzero" />
    </clipPath>
  </defs>
  <g clip-path="url(#776b199dab)">
    <g clip-path="url(#6a7b1d8137)">
      <g transform="matrix(1, 0, 0, 1, 37, 620)">
        <g clip-path="url(#105e9d922b)">
          <g clip-path="url(#363d5320ad)">
            <g clip-path="url(#abc9f03b2b)">
              <path fill="#1649ff" d="M 0.5 0.871094 L 388.316406 0.871094 L 388.316406 282.921875 L 0.5 282.921875 Z M 0.5 0.871094 " fill-opacity="1" fill-rule="nonzero" />
            </g>
          </g>
        </g>
      </g>
    </g>
  </g>
  <g clip-path="url(#1a08a38c6d)">
    <path fill="#efefef" d="M 112.566406 696.125 L 117.265625 696.125 L 117.265625 677.332031 L 112.566406 677.332031 C 97 677.332031 84.378906 689.953125 84.378906 705.519531 L 84.378906 738.40625 C 84.378906 741.363281 82.988281 744.144531 80.621094 745.921875 L 69.347656 754.378906 C 67.089844 756.070312 65.714844 758.6875 65.597656 761.503906 C 65.480469 764.320312 66.632812 767.042969 68.742188 768.917969 L 81.226562 780.011719 C 83.230469 781.792969 84.378906 784.351562 84.378906 787.035156 L 84.378906 818.269531 C 84.378906 833.835938 97 846.457031 112.566406 846.457031 L 117.265625 846.457031 L 117.265625 827.664062 L 112.566406 827.664062 C 107.378906 827.664062 103.171875 823.457031 103.171875 818.269531 L 103.171875 787.035156 C 103.171875 778.980469 99.726562 771.3125 93.707031 765.964844 L 89.820312 762.511719 L 91.898438 760.953125 C 98.996094 755.628906 103.171875 747.277344 103.171875 738.40625 L 103.171875 705.519531 C 103.171875 700.328125 107.378906 696.125 112.566406 696.125 Z M 112.566406 696.125 " fill-opacity="1" fill-rule="evenodd" />
  </g>
  <g clip-path="url(#19a66b1e82)">
    <path fill="#efefef" d="M 346.640625 696.125 L 341.941406 696.125 L 341.941406 677.332031 L 346.640625 677.332031 C 362.207031 677.332031 374.828125 689.953125 374.828125 705.519531 L 374.828125 738.40625 C 374.828125 741.363281 376.21875 744.144531 378.585938 745.921875 L 389.859375 754.378906 C 392.117188 756.070312 393.492188 758.6875 393.609375 761.503906 C 393.726562 764.320312 392.574219 767.042969 390.464844 768.917969 L 377.980469 780.011719 C 375.976562 781.792969 374.828125 784.351562 374.828125 787.035156 L 374.828125 818.269531 C 374.828125 833.835938 362.207031 846.457031 346.640625 846.457031 L 341.941406 846.457031 L 341.941406 827.664062 L 346.640625 827.664062 C 351.828125 827.664062 356.035156 823.457031 356.035156 818.269531 L 356.035156 787.035156 C 356.035156 778.980469 359.480469 771.3125 365.5 765.964844 L 369.386719 762.511719 L 367.308594 760.953125 C 360.210938 755.628906 356.035156 747.277344 356.035156 738.40625 L 356.035156 705.519531 C 356.035156 700.328125 351.828125 696.125 346.640625 696.125 Z M 346.640625 696.125 " fill-opacity="1" fill-rule="evenodd" />
  </g>
  <g fill="#efefef" fill-opacity="1">
    <g transform="translate(123.158716, 823.771325)">
      <g>
        <path d="M 109.203125 0 L 86.015625 0 L 86.015625 -54.9375 L 34.4375 -54.9375 L 34.4375 0 L 11.25 0 L 11.25 -112.734375 C 11.25 -112.835938 11.050781 -113.671875 10.65625 -115.234375 C 10.269531 -116.804688 9.878906 -118.429688 9.484375 -120.109375 C 9.097656 -121.796875 8.90625 -122.75 8.90625 -122.96875 L 34.4375 -122.96875 L 34.4375 -71.5625 L 86.015625 -71.5625 L 86.015625 -122.96875 L 109.203125 -122.96875 Z M 109.203125 0 " />
      </g>
    </g>
  </g>
  <g fill="#efefef" fill-opacity="1">
    <g transform="translate(253.02269, 823.771325)">
      <g>
        <path d="M 83.328125 -36.125 C 83.328125 -24.25 79.15625 -14.921875 70.8125 -8.140625 C 62.46875 -1.367188 52.25 2.015625 40.15625 2.015625 C 24.8125 2.015625 11.648438 -1.234375 0.671875 -7.734375 L 8.5625 -26.375 C 17.300781 -18.195312 27.101562 -14.109375 37.96875 -14.109375 C 43.675781 -14.109375 48.570312 -15.675781 52.65625 -18.8125 C 56.75 -21.945312 58.796875 -26.316406 58.796875 -31.921875 C 58.796875 -35.953125 57.453125 -39.535156 54.765625 -42.671875 C 52.078125 -45.804688 48.742188 -48.269531 44.765625 -50.0625 C 40.796875 -51.851562 36.457031 -53.953125 31.75 -56.359375 C 27.050781 -58.765625 22.710938 -61.203125 18.734375 -63.671875 C 14.753906 -66.140625 11.421875 -69.640625 8.734375 -74.171875 C 6.046875 -78.703125 4.703125 -83.9375 4.703125 -89.875 C 4.703125 -101.414062 8.707031 -110.148438 16.71875 -116.078125 C 24.726562 -122.015625 35.394531 -124.984375 48.71875 -124.984375 C 53.757812 -124.984375 59.582031 -123.972656 66.1875 -121.953125 C 72.800781 -119.941406 77.84375 -117.59375 81.3125 -114.90625 L 69.71875 -100.46875 C 63.445312 -106.0625 55.71875 -108.859375 46.53125 -108.859375 C 41.832031 -108.859375 37.773438 -107.625 34.359375 -105.15625 C 30.941406 -102.695312 29.234375 -99.226562 29.234375 -94.75 C 29.234375 -90.832031 30.578125 -87.390625 33.265625 -84.421875 C 35.953125 -81.453125 39.28125 -79.070312 43.25 -77.28125 C 47.226562 -75.488281 51.570312 -73.359375 56.28125 -70.890625 C 60.988281 -68.429688 65.328125 -65.941406 69.296875 -63.421875 C 73.273438 -60.898438 76.609375 -57.285156 79.296875 -52.578125 C 81.984375 -47.878906 83.328125 -42.394531 83.328125 -36.125 Z M 83.328125 -36.125 " />
      </g>
    </g>
  </g>
</svg>