<?xml version='1.0' encoding='utf-8'?>
<svg xmlns="http://www.w3.org/2000/svg" viewBox="780 950 600 450" preserveAspectRatio="xMidYMid meet">
  <defs>
    <clipPath id="3bf99bb2ba">
      <path d="M 1017.90625 1364.84375 L 1098.402344 1364.84375 L 1098.402344 1383.914062 L 1017.90625 1383.914062 Z M 1017.90625 1364.84375 " clip-rule="nonzero" />
    </clipPath>
    <clipPath id="91a61176b8">
      <path d="M 0.90625 0.84375 L 81.402344 0.84375 L 81.402344 19.914062 L 0.90625 19.914062 Z M 0.90625 0.84375 " clip-rule="nonzero" />
    </clipPath>
    <clipPath id="218a9f6b24">
      <rect x="0" width="82" y="0" height="20" />
    </clipPath>
    <clipPath id="050c5e4c57">
      <path d="M 1017.90625 1236.84375 L 1098.402344 1236.84375 L 1098.402344 1255.914062 L 1017.90625 1255.914062 Z M 1017.90625 1236.84375 " clip-rule="nonzero" />
    </clipPath>
    <clipPath id="7052983398">
      <path d="M 0.90625 0.84375 L 81.402344 0.84375 L 81.402344 19.914062 L 0.90625 19.914062 Z M 0.90625 0.84375 " clip-rule="nonzero" />
    </clipPath>
    <clipPath id="562ebd6eab">
      <rect x="0" width="82" y="0" height="20" />
    </clipPath>
    <clipPath id="733636e071">
      <path d="M 1017.90625 1322.175781 L 1098.402344 1322.175781 L 1098.402344 1341.25 L 1017.90625 1341.25 Z M 1017.90625 1322.175781 " clip-rule="nonzero" />
    </clipPath>
    <clipPath id="d609ddbbdc">
      <path d="M 0.90625 0.175781 L 81.402344 0.175781 L 81.402344 19.25 L 0.90625 19.25 Z M 0.90625 0.175781 " clip-rule="nonzero" />
    </clipPath>
    <clipPath id="f24ce52f73">
      <rect x="0" width="82" y="0" height="20" />
    </clipPath>
    <clipPath id="3658ad390b">
      <path d="M 1017.90625 1194.175781 L 1098.402344 1194.175781 L 1098.402344 1213.25 L 1017.90625 1213.25 Z M 1017.90625 1194.175781 " clip-rule="nonzero" />
    </clipPath>
    <clipPath id="cdb0a4f439">
      <path d="M 0.90625 0.175781 L 81.402344 0.175781 L 81.402344 19.25 L 0.90625 19.25 Z M 0.90625 0.175781 " clip-rule="nonzero" />
    </clipPath>
    <clipPath id="ad58e3a79e">
      <rect x="0" width="82" y="0" height="20" />
    </clipPath>
    <clipPath id="1dab1ddbfc">
      <path d="M 1017.90625 1279.507812 L 1098.402344 1279.507812 L 1098.402344 1298.582031 L 1017.90625 1298.582031 Z M 1017.90625 1279.507812 " clip-rule="nonzero" />
    </clipPath>
    <clipPath id="723d297f93">
      <path d="M 0.90625 0.507812 L 81.402344 0.507812 L 81.402344 19.582031 L 0.90625 19.582031 Z M 0.90625 0.507812 " clip-rule="nonzero" />
    </clipPath>
    <clipPath id="d645cd51b3">
      <rect x="0" width="82" y="0" height="20" />
    </clipPath>
    <clipPath id="ba714e3b67">
      <path d="M 1017.90625 1151.511719 L 1098.402344 1151.511719 L 1098.402344 1170.582031 L 1017.90625 1170.582031 Z M 1017.90625 1151.511719 " clip-rule="nonzero" />
    </clipPath>
    <clipPath id="d6edf46646">
      <path d="M 0.90625 0.511719 L 81.402344 0.511719 L 81.402344 19.582031 L 0.90625 19.582031 Z M 0.90625 0.511719 " clip-rule="nonzero" />
    </clipPath>
    <clipPath id="4bee41ff2e">
      <rect x="0" width="82" y="0" height="20" />
    </clipPath>
    <clipPath id="fd8c5d5b79">
      <rect x="0" width="201" y="0" height="212" />
    </clipPath>
    <clipPath id="617ea85596">
      <rect x="0" width="427" y="0" height="220" />
    </clipPath>
    <clipPath id="de135ab48b">
      <path d="M 1017.90625 1108.84375 L 1098.402344 1108.84375 L 1098.402344 1127.917969 L 1017.90625 1127.917969 Z M 1017.90625 1108.84375 " clip-rule="nonzero" />
    </clipPath>
    <clipPath id="03f3746e05">
      <path d="M 0.90625 0.84375 L 81.402344 0.84375 L 81.402344 19.917969 L 0.90625 19.917969 Z M 0.90625 0.84375 " clip-rule="nonzero" />
    </clipPath>
    <clipPath id="33d4349f66">
      <rect x="0" width="82" y="0" height="20" />
    </clipPath>
    <clipPath id="296ef7c965">
      <path d="M 1017.90625 1066.175781 L 1098.402344 1066.175781 L 1098.402344 1085.25 L 1017.90625 1085.25 Z M 1017.90625 1066.175781 " clip-rule="nonzero" />
    </clipPath>
    <clipPath id="1274139531">
      <path d="M 0.90625 0.175781 L 81.402344 0.175781 L 81.402344 19.25 L 0.90625 19.25 Z M 0.90625 0.175781 " clip-rule="nonzero" />
    </clipPath>
    <clipPath id="d757f0d9ad">
      <rect x="0" width="82" y="0" height="20" />
    </clipPath>
    <clipPath id="98c690e743">
      <path d="M 1017.90625 1023.511719 L 1098.402344 1023.511719 L 1098.402344 1042.582031 L 1017.90625 1042.582031 Z M 1017.90625 1023.511719 " clip-rule="nonzero" />
    </clipPath>
    <clipPath id="a6022fc950">
      <path d="M 0.90625 0.511719 L 81.402344 0.511719 L 81.402344 19.582031 L 0.90625 19.582031 Z M 0.90625 0.511719 " clip-rule="nonzero" />
    </clipPath>
    <clipPath id="b524b70e39">
      <rect x="0" width="82" y="0" height="20" />
    </clipPath>
    <clipPath id="7f72361ab4">
      <path d="M 1017.90625 1237.1875 L 1098.402344 1237.1875 L 1098.402344 1256.257812 L 1017.90625 1256.257812 Z M 1017.90625 1237.1875 " clip-rule="nonzero" />
    </clipPath>
    <clipPath id="53fd0da5d6">
      <path d="M 0.90625 0.1875 L 81.402344 0.1875 L 81.402344 19.257812 L 0.90625 19.257812 Z M 0.90625 0.1875 " clip-rule="nonzero" />
    </clipPath>
    <clipPath id="59ee7550f9">
      <rect x="0" width="82" y="0" height="20" />
    </clipPath>
    <clipPath id="4e646189a7">
      <path d="M 1017.90625 1194.519531 L 1098.402344 1194.519531 L 1098.402344 1213.59375 L 1017.90625 1213.59375 Z M 1017.90625 1194.519531 " clip-rule="nonzero" />
    </clipPath>
    <clipPath id="3e719293dd">
      <path d="M 0.90625 0.519531 L 81.402344 0.519531 L 81.402344 19.59375 L 0.90625 19.59375 Z M 0.90625 0.519531 " clip-rule="nonzero" />
    </clipPath>
    <clipPath id="22f2629b0c">
      <rect x="0" width="82" y="0" height="20" />
    </clipPath>
    <clipPath id="74eb081b44">
      <path d="M 1017.90625 1151.855469 L 1098.402344 1151.855469 L 1098.402344 1170.925781 L 1017.90625 1170.925781 Z M 1017.90625 1151.855469 " clip-rule="nonzero" />
    </clipPath>
    <clipPath id="03e6005b19">
      <path d="M 0.90625 0.855469 L 81.402344 0.855469 L 81.402344 19.925781 L 0.90625 19.925781 Z M 0.90625 0.855469 " clip-rule="nonzero" />
    </clipPath>
    <clipPath id="6033334c4b">
      <rect x="0" width="82" y="0" height="20" />
    </clipPath>
    <clipPath id="a9c2663773">
      <path d="M 1017.90625 1364.84375 L 1098.402344 1364.84375 L 1098.402344 1383.914062 L 1017.90625 1383.914062 Z M 1017.90625 1364.84375 " clip-rule="nonzero" />
    </clipPath>
    <clipPath id="a5a6e0383b">
      <path d="M 0.90625 0.84375 L 81.402344 0.84375 L 81.402344 19.914062 L 0.90625 19.914062 Z M 0.90625 0.84375 " clip-rule="nonzero" />
    </clipPath>
    <clipPath id="5a8b67b4f8">
      <rect x="0" width="82" y="0" height="20" />
    </clipPath>
    <clipPath id="a903f2ff77">
      <path d="M 1017.90625 1322.175781 L 1098.402344 1322.175781 L 1098.402344 1341.25 L 1017.90625 1341.25 Z M 1017.90625 1322.175781 " clip-rule="nonzero" />
    </clipPath>
    <clipPath id="283b33d3b6">
      <path d="M 0.90625 0.175781 L 81.402344 0.175781 L 81.402344 19.25 L 0.90625 19.25 Z M 0.90625 0.175781 " clip-rule="nonzero" />
    </clipPath>
    <clipPath id="ad82428b1c">
      <rect x="0" width="82" y="0" height="20" />
    </clipPath>
    <clipPath id="8ed1246f1f">
      <path d="M 1017.90625 1279.507812 L 1098.402344 1279.507812 L 1098.402344 1298.582031 L 1017.90625 1298.582031 Z M 1017.90625 1279.507812 " clip-rule="nonzero" />
    </clipPath>
    <clipPath id="eb198d59ce">
      <path d="M 0.90625 0.507812 L 81.402344 0.507812 L 81.402344 19.582031 L 0.90625 19.582031 Z M 0.90625 0.507812 " clip-rule="nonzero" />
    </clipPath>
    <clipPath id="43ff4aa266">
      <rect x="0" width="82" y="0" height="20" />
    </clipPath>
  </defs>
  <g clip-path="url(#3bf99bb2ba)">
    <g transform="matrix(1, 0, 0, 1, 1017, 1364)">
      <g clip-path="url(#218a9f6b24)">
        <g clip-path="url(#91a61176b8)">
          <path fill="#ff6100" d="M 0.90625 0.84375 L 81.367188 0.84375 L 81.367188 19.914062 L 0.90625 19.914062 Z M 0.90625 0.84375 " fill-opacity="1" fill-rule="nonzero" />
        </g>
      </g>
    </g>
  </g>
  <g clip-path="url(#050c5e4c57)">
    <g transform="matrix(1, 0, 0, 1, 1017, 1236)">
      <g clip-path="url(#562ebd6eab)">
        <g clip-path="url(#7052983398)">
          <path fill="#ff6100" d="M 0.90625 0.84375 L 81.367188 0.84375 L 81.367188 19.914062 L 0.90625 19.914062 Z M 0.90625 0.84375 " fill-opacity="1" fill-rule="nonzero" />
        </g>
      </g>
    </g>
  </g>
  <g clip-path="url(#733636e071)">
    <g transform="matrix(1, 0, 0, 1, 1017, 1322)">
      <g clip-path="url(#f24ce52f73)">
        <g clip-path="url(#d609ddbbdc)">
          <path fill="#ff6100" d="M 0.90625 0.175781 L 81.367188 0.175781 L 81.367188 19.25 L 0.90625 19.25 Z M 0.90625 0.175781 " fill-opacity="1" fill-rule="nonzero" />
        </g>
      </g>
    </g>
  </g>
  <g clip-path="url(#3658ad390b)">
    <g transform="matrix(1, 0, 0, 1, 1017, 1194)">
      <g clip-path="url(#ad58e3a79e)">
        <g clip-path="url(#cdb0a4f439)">
          <path fill="#ff6100" d="M 0.90625 0.175781 L 81.367188 0.175781 L 81.367188 19.25 L 0.90625 19.25 Z M 0.90625 0.175781 " fill-opacity="1" fill-rule="nonzero" />
        </g>
      </g>
    </g>
  </g>
  <g clip-path="url(#1dab1ddbfc)">
    <g transform="matrix(1, 0, 0, 1, 1017, 1279)">
      <g clip-path="url(#d645cd51b3)">
        <g clip-path="url(#723d297f93)">
          <path fill="#ff6100" d="M 0.90625 0.507812 L 81.367188 0.507812 L 81.367188 19.582031 L 0.90625 19.582031 Z M 0.90625 0.507812 " fill-opacity="1" fill-rule="nonzero" />
        </g>
      </g>
    </g>
  </g>
  <g clip-path="url(#ba714e3b67)">
    <g transform="matrix(1, 0, 0, 1, 1017, 1151)">
      <g clip-path="url(#4bee41ff2e)">
        <g clip-path="url(#d6edf46646)">
          <path fill="#ff6100" d="M 0.90625 0.511719 L 81.367188 0.511719 L 81.367188 19.582031 L 0.90625 19.582031 Z M 0.90625 0.511719 " fill-opacity="1" fill-rule="nonzero" />
        </g>
      </g>
    </g>
  </g>
  <g transform="matrix(1, 0, 0, 1, 808, 971)">
    <g clip-path="url(#fd8c5d5b79)">
      <g fill="#1649ff" fill-opacity="1">
        <g transform="translate(0.580061, 158.332239)">
          <g>
            <path d="M 85.65625 -106.046875 L 85.65625 -85.34375 L 57.5625 -85.34375 L 57.5625 0 L 31.71875 0 L 31.71875 -85.34375 L 3.625 -85.34375 L 3.625 -106.046875 Z M 85.65625 -106.046875 " />
          </g>
        </g>
      </g>
      <g fill="#1649ff" fill-opacity="1">
        <g transform="translate(89.851011, 158.332239)">
          <g>
            <path d="M 101.21875 -106.046875 L 101.21875 0 L 75.375 0 L 75.375 -43.65625 L 35.203125 -43.65625 L 35.203125 0 L 9.359375 0 L 9.359375 -106.046875 L 35.203125 -106.046875 L 35.203125 -64.5 L 75.375 -64.5 L 75.375 -106.046875 Z M 101.21875 -106.046875 " />
          </g>
        </g>
      </g>
    </g>
  </g>
  <g transform="matrix(1, 0, 0, 1, 896, 1220)">
    <g clip-path="url(#617ea85596)">
      <g fill="#1649ff" fill-opacity="1">
        <g transform="translate(1.087319, 164.048018)">
          <g>
            <path d="M 104.390625 -109.375 L 104.390625 0 L 77.75 0 L 77.75 -45.03125 L 36.296875 -45.03125 L 36.296875 0 L 9.65625 0 L 9.65625 -109.375 L 36.296875 -109.375 L 36.296875 -66.53125 L 77.75 -66.53125 L 77.75 -109.375 Z M 104.390625 -109.375 " />
          </g>
        </g>
      </g>
      <g fill="#1649ff" fill-opacity="1">
        <g transform="translate(110.628227, 164.048018)">
          <g />
        </g>
      </g>
      <g fill="#1649ff" fill-opacity="1">
        <g transform="translate(139.297461, 164.048018)">
          <g />
        </g>
      </g>
      <g fill="#1649ff" fill-opacity="1">
        <g transform="translate(167.966694, 164.048018)">
          <g />
        </g>
      </g>
      <g fill="#1649ff" fill-opacity="1">
        <g transform="translate(196.635928, 164.048018)">
          <g />
        </g>
      </g>
      <g fill="#1649ff" fill-opacity="1">
        <g transform="translate(225.308514, 164.048018)">
          <g>
            <path d="M 77.75 -19.328125 L 36.921875 -19.328125 L 30.390625 0 L 2.5 0 L 42.0625 -109.375 L 72.921875 -109.375 L 112.5 0 L 84.296875 0 Z M 70.890625 -39.890625 L 57.34375 -79.9375 L 43.9375 -39.890625 Z M 70.890625 -39.890625 " />
          </g>
        </g>
      </g>
      <g fill="#1649ff" fill-opacity="1">
        <g transform="translate(335.77876, 164.048018)">
          <g>
            <path d="M 88.34375 -109.375 L 88.34375 -88.03125 L 59.359375 -88.03125 L 59.359375 0 L 32.71875 0 L 32.71875 -88.03125 L 3.734375 -88.03125 L 3.734375 -109.375 Z M 88.34375 -109.375 " />
          </g>
        </g>
      </g>
    </g>
  </g>
  <g fill="#1649ff" fill-opacity="1">
    <g transform="translate(801.380004, 1257.710032)">
      <g>
        <path d="M 49.203125 1.09375 C 41.210938 1.09375 34.050781 -0.203125 27.71875 -2.796875 C 21.382812 -5.398438 16.320312 -9.242188 12.53125 -14.328125 C 8.75 -19.410156 6.753906 -25.535156 6.546875 -32.703125 L 34.875 -32.703125 C 35.289062 -28.648438 36.691406 -25.5625 39.078125 -23.4375 C 41.472656 -21.3125 44.585938 -20.25 48.421875 -20.25 C 52.367188 -20.25 55.484375 -21.15625 57.765625 -22.96875 C 60.054688 -24.78125 61.203125 -27.296875 61.203125 -30.515625 C 61.203125 -33.210938 60.289062 -35.441406 58.46875 -37.203125 C 56.65625 -38.972656 54.425781 -40.429688 51.78125 -41.578125 C 49.132812 -42.722656 45.367188 -44.019531 40.484375 -45.46875 C 33.421875 -47.644531 27.65625 -49.820312 23.1875 -52 C 18.726562 -54.1875 14.890625 -57.40625 11.671875 -61.65625 C 8.460938 -65.914062 6.859375 -71.472656 6.859375 -78.328125 C 6.859375 -88.503906 10.539062 -96.472656 17.90625 -102.234375 C 25.28125 -107.992188 34.882812 -110.875 46.71875 -110.875 C 58.757812 -110.875 68.460938 -107.992188 75.828125 -102.234375 C 83.203125 -96.472656 87.148438 -88.453125 87.671875 -78.171875 L 58.859375 -78.171875 C 58.648438 -81.703125 57.351562 -84.476562 54.96875 -86.5 C 52.582031 -88.519531 49.519531 -89.53125 45.78125 -89.53125 C 42.5625 -89.53125 39.960938 -88.675781 37.984375 -86.96875 C 36.015625 -85.257812 35.03125 -82.796875 35.03125 -79.578125 C 35.03125 -76.046875 36.691406 -73.289062 40.015625 -71.3125 C 43.335938 -69.34375 48.53125 -67.21875 55.59375 -64.9375 C 62.65625 -62.550781 68.390625 -60.265625 72.796875 -58.078125 C 77.210938 -55.898438 81.03125 -52.734375 84.25 -48.578125 C 87.46875 -44.429688 89.078125 -39.085938 89.078125 -32.546875 C 89.078125 -26.316406 87.492188 -20.65625 84.328125 -15.5625 C 81.160156 -10.476562 76.566406 -6.429688 70.546875 -3.421875 C 64.523438 -0.410156 57.410156 1.09375 49.203125 1.09375 Z M 49.203125 1.09375 " />
      </g>
    </g>
  </g>
  <g fill="#1649ff" fill-opacity="1">
    <g transform="translate(897.139842, 1257.710032)">
      <g>
        <path d="M 104.328125 -109.3125 L 104.328125 0 L 77.703125 0 L 77.703125 -45 L 36.28125 -45 L 36.28125 0 L 9.65625 0 L 9.65625 -109.3125 L 36.28125 -109.3125 L 36.28125 -66.484375 L 77.703125 -66.484375 L 77.703125 -109.3125 Z M 104.328125 -109.3125 " />
      </g>
    </g>
  </g>
  <g fill="#1649ff" fill-opacity="1">
    <g transform="translate(1010.969834, 1257.710032)">
      <g />
    </g>
  </g>
  <g fill="#1649ff" fill-opacity="1">
    <g transform="translate(1043.97973, 1257.710032)">
      <g />
    </g>
  </g>
  <g fill="#1649ff" fill-opacity="1">
    <g transform="translate(1076.989627, 1257.710032)">
      <g />
    </g>
  </g>
  <g fill="#1649ff" fill-opacity="1">
    <g transform="translate(1110.004978, 1257.710032)">
      <g>
        <path d="M 36.28125 -87.984375 L 36.28125 -65.875 L 71.9375 -65.875 L 71.9375 -45.3125 L 36.28125 -45.3125 L 36.28125 -21.328125 L 76.609375 -21.328125 L 76.609375 0 L 9.65625 0 L 9.65625 -109.3125 L 76.609375 -109.3125 L 76.609375 -87.984375 Z M 36.28125 -87.984375 " />
      </g>
    </g>
  </g>
  <g fill="#1649ff" fill-opacity="1">
    <g transform="translate(1194.242492, 1257.710032)">
      <g>
        <path d="M 36.28125 -87.984375 L 36.28125 -65.875 L 71.9375 -65.875 L 71.9375 -45.3125 L 36.28125 -45.3125 L 36.28125 -21.328125 L 76.609375 -21.328125 L 76.609375 0 L 9.65625 0 L 9.65625 -109.3125 L 76.609375 -109.3125 L 76.609375 -87.984375 Z M 36.28125 -87.984375 " />
      </g>
    </g>
  </g>
  <g fill="#1649ff" fill-opacity="1">
    <g transform="translate(1278.480007, 1257.710032)">
      <g>
        <path d="M 88.296875 -109.3125 L 88.296875 -87.984375 L 59.328125 -87.984375 L 59.328125 0 L 32.703125 0 L 32.703125 -87.984375 L 3.734375 -87.984375 L 3.734375 -109.3125 Z M 88.296875 -109.3125 " />
      </g>
    </g>
  </g>
  <g clip-path="url(#de135ab48b)">
    <g transform="matrix(1, 0, 0, 1, 1017, 1108)">
      <g clip-path="url(#33d4349f66)">
        <g clip-path="url(#03f3746e05)">
          <path fill="#1649ff" d="M 0.90625 0.84375 L 81.367188 0.84375 L 81.367188 19.917969 L 0.90625 19.917969 Z M 0.90625 0.84375 " fill-opacity="1" fill-rule="nonzero" />
        </g>
      </g>
    </g>
  </g>
  <g clip-path="url(#296ef7c965)">
    <g transform="matrix(1, 0, 0, 1, 1017, 1066)">
      <g clip-path="url(#d757f0d9ad)">
        <g clip-path="url(#1274139531)">
          <path fill="#ff6100" d="M 0.90625 0.175781 L 81.367188 0.175781 L 81.367188 19.25 L 0.90625 19.25 Z M 0.90625 0.175781 " fill-opacity="1" fill-rule="nonzero" />
        </g>
      </g>
    </g>
  </g>
  <g clip-path="url(#98c690e743)">
    <g transform="matrix(1, 0, 0, 1, 1017, 1023)">
      <g clip-path="url(#b524b70e39)">
        <g clip-path="url(#a6022fc950)">
          <path fill="#ee0000" d="M 0.90625 0.511719 L 81.367188 0.511719 L 81.367188 19.582031 L 0.90625 19.582031 Z M 0.90625 0.511719 " fill-opacity="1" fill-rule="nonzero" />
        </g>
      </g>
    </g>
  </g>
  <g clip-path="url(#7f72361ab4)">
    <g transform="matrix(1, 0, 0, 1, 1017, 1237)">
      <g clip-path="url(#59ee7550f9)">
        <g clip-path="url(#53fd0da5d6)">
          <path fill="#1649ff" d="M 0.90625 0.1875 L 81.367188 0.1875 L 81.367188 19.257812 L 0.90625 19.257812 Z M 0.90625 0.1875 " fill-opacity="1" fill-rule="nonzero" />
        </g>
      </g>
    </g>
  </g>
  <g clip-path="url(#4e646189a7)">
    <g transform="matrix(1, 0, 0, 1, 1017, 1194)">
      <g clip-path="url(#22f2629b0c)">
        <g clip-path="url(#3e719293dd)">
          <path fill="#ff6100" d="M 0.90625 0.519531 L 81.367188 0.519531 L 81.367188 19.59375 L 0.90625 19.59375 Z M 0.90625 0.519531 " fill-opacity="1" fill-rule="nonzero" />
        </g>
      </g>
    </g>
  </g>
  <g clip-path="url(#74eb081b44)">
    <g transform="matrix(1, 0, 0, 1, 1017, 1151)">
      <g clip-path="url(#6033334c4b)">
        <g clip-path="url(#03e6005b19)">
          <path fill="#ee0000" d="M 0.90625 0.855469 L 81.367188 0.855469 L 81.367188 19.925781 L 0.90625 19.925781 Z M 0.90625 0.855469 " fill-opacity="1" fill-rule="nonzero" />
        </g>
      </g>
    </g>
  </g>
  <g clip-path="url(#a9c2663773)">
    <g transform="matrix(1, 0, 0, 1, 1017, 1364)">
      <g clip-path="url(#5a8b67b4f8)">
        <g clip-path="url(#a5a6e0383b)">
          <path fill="#1649ff" d="M 0.90625 0.84375 L 81.367188 0.84375 L 81.367188 19.914062 L 0.90625 19.914062 Z M 0.90625 0.84375 " fill-opacity="1" fill-rule="nonzero" />
        </g>
      </g>
    </g>
  </g>
  <g clip-path="url(#a903f2ff77)">
    <g transform="matrix(1, 0, 0, 1, 1017, 1322)">
      <g clip-path="url(#ad82428b1c)">
        <g clip-path="url(#283b33d3b6)">
          <path fill="#ff6100" d="M 0.90625 0.175781 L 81.367188 0.175781 L 81.367188 19.25 L 0.90625 19.25 Z M 0.90625 0.175781 " fill-opacity="1" fill-rule="nonzero" />
        </g>
      </g>
    </g>
  </g>
  <g clip-path="url(#8ed1246f1f)">
    <g transform="matrix(1, 0, 0, 1, 1017, 1279)">
      <g clip-path="url(#43ff4aa266)">
        <g clip-path="url(#eb198d59ce)">
          <path fill="#ee0000" d="M 0.90625 0.507812 L 81.367188 0.507812 L 81.367188 19.582031 L 0.90625 19.582031 Z M 0.90625 0.507812 " fill-opacity="1" fill-rule="nonzero" />
        </g>
      </g>
    </g>
  </g>
</svg>