<?xml version='1.0' encoding='utf-8'?>
<svg xmlns="http://www.w3.org/2000/svg" viewBox="470 590 400 330" preserveAspectRatio="xMidYMid meet">
  <defs>
    <clipPath id="4ddb9d6b2d">
      <path d="M 837.53125 612.832031 L 1448.832031 612.832031 L 1448.832031 962.523438 L 837.53125 962.523438 Z M 837.53125 612.832031 " clip-rule="nonzero" />
    </clipPath>
    <clipPath id="0b97ad614b">
      <path d="M 0.53125 0.832031 L 611.832031 0.832031 L 611.832031 350.523438 L 0.53125 350.523438 Z M 0.53125 0.832031 " clip-rule="nonzero" />
    </clipPath>
    <clipPath id="4e017fe151">
      <rect x="0" width="612" y="0" height="351" />
    </clipPath>
    <clipPath id="e3304bca0d">
      <path d="M 837.53125 890.808594 L 1448.832031 890.808594 L 1448.832031 960.421875 L 837.53125 960.421875 Z M 837.53125 890.808594 " clip-rule="nonzero" />
    </clipPath>
    <clipPath id="4cba767d8a">
      <path d="M 0.53125 0.808594 L 611.832031 0.808594 L 611.832031 70.421875 L 0.53125 70.421875 Z M 0.53125 0.808594 " clip-rule="nonzero" />
    </clipPath>
    <clipPath id="54f9a1fc17">
      <rect x="0" width="612" y="0" height="71" />
    </clipPath>
    <clipPath id="c4756a208b">
      <path d="M 487.929688 611.578125 L 837.53125 611.578125 L 837.53125 961.269531 L 487.929688 961.269531 Z M 487.929688 611.578125 " clip-rule="nonzero" />
    </clipPath>
    <clipPath id="bea30ae91a">
      <path d="M 0.929688 0.578125 L 350.53125 0.578125 L 350.53125 350.269531 L 0.929688 350.269531 Z M 0.929688 0.578125 " clip-rule="nonzero" />
    </clipPath>
    <clipPath id="998d56baaa">
      <rect x="0" width="351" y="0" height="351" />
    </clipPath>
    <clipPath id="1db40e8a61">
      <path d="M 837.53125 611.578125 L 1448.832031 611.578125 L 1448.832031 681.339844 L 837.53125 681.339844 Z M 837.53125 611.578125 " clip-rule="nonzero" />
    </clipPath>
    <clipPath id="beec6c7325">
      <path d="M 0.53125 0.578125 L 611.832031 0.578125 L 611.832031 70.339844 L 0.53125 70.339844 Z M 0.53125 0.578125 " clip-rule="nonzero" />
    </clipPath>
    <clipPath id="4c47a0023a">
      <rect x="0" width="612" y="0" height="71" />
    </clipPath>
    <clipPath id="9f30351e7f">
      <path d="M 837.53125 749.519531 L 1448.832031 749.519531 L 1448.832031 825.839844 L 837.53125 825.839844 Z M 837.53125 749.519531 " clip-rule="nonzero" />
    </clipPath>
    <clipPath id="73de074b99">
      <path d="M 0.53125 0.519531 L 611.832031 0.519531 L 611.832031 76.839844 L 0.53125 76.839844 Z M 0.53125 0.519531 " clip-rule="nonzero" />
    </clipPath>
    <clipPath id="cde0d7e29e">
      <rect x="0" width="612" y="0" height="77" />
    </clipPath>
    <clipPath id="e339a2817a">
      <path d="M 89.171875 0.675781 L 143.960938 0.675781 L 143.960938 52.242188 L 89.171875 52.242188 Z M 89.171875 0.675781 " clip-rule="nonzero" />
    </clipPath>
    <clipPath id="3057d26c50">
      <path d="M 94.214844 41.625 L 102.101562 30.804688 L 89.363281 26.660156 L 94.925781 9.472656 L 107.664062 13.617188 L 107.664062 0.675781 L 125.660156 0.675781 L 125.660156 13.617188 L 138.402344 9.472656 L 143.960938 26.660156 L 131.222656 30.804688 L 139.109375 41.625 L 124.546875 52.242188 L 116.664062 41.421875 L 108.777344 52.242188 Z M 94.214844 41.625 " clip-rule="nonzero" />
    </clipPath>
    <clipPath id="ae27cd00a5">
      <path d="M 0.320312 0.675781 L 54.960938 0.675781 L 54.960938 52.242188 L 0.320312 52.242188 Z M 0.320312 0.675781 " clip-rule="nonzero" />
    </clipPath>
    <clipPath id="b4cb6e5908">
      <path d="M 5.214844 41.625 L 13.101562 30.804688 L 0.363281 26.660156 L 5.925781 9.472656 L 18.664062 13.617188 L 18.664062 0.675781 L 36.660156 0.675781 L 36.660156 13.617188 L 49.402344 9.472656 L 54.960938 26.660156 L 42.222656 30.804688 L 50.109375 41.625 L 35.546875 52.242188 L 27.664062 41.421875 L 19.777344 52.242188 Z M 5.214844 41.625 " clip-rule="nonzero" />
    </clipPath>
    <clipPath id="2576409586">
      <rect x="0" width="55" y="0" height="53" />
    </clipPath>
    <clipPath id="78d792c19d">
      <path d="M 178 0.675781 L 232.636719 0.675781 L 232.636719 52.242188 L 178 52.242188 Z M 178 0.675781 " clip-rule="nonzero" />
    </clipPath>
    <clipPath id="d6a79f947a">
      <path d="M 182.890625 41.625 L 190.777344 30.804688 L 178.039062 26.660156 L 183.597656 9.472656 L 196.339844 13.617188 L 196.339844 0.675781 L 214.335938 0.675781 L 214.335938 13.617188 L 227.074219 9.472656 L 232.636719 26.660156 L 219.898438 30.804688 L 227.78125 41.625 L 213.222656 52.242188 L 205.335938 41.421875 L 197.449219 52.242188 Z M 182.890625 41.625 " clip-rule="nonzero" />
    </clipPath>
    <clipPath id="7f5d0efc42">
      <path d="M 0 0.675781 L 54.636719 0.675781 L 54.636719 52.242188 L 0 52.242188 Z M 0 0.675781 " clip-rule="nonzero" />
    </clipPath>
    <clipPath id="761e47fca4">
      <path d="M 4.890625 41.625 L 12.777344 30.804688 L 0.0390625 26.660156 L 5.597656 9.472656 L 18.339844 13.617188 L 18.339844 0.675781 L 36.335938 0.675781 L 36.335938 13.617188 L 49.074219 9.472656 L 54.636719 26.660156 L 41.898438 30.804688 L 49.78125 41.625 L 35.222656 52.242188 L 27.335938 41.421875 L 19.449219 52.242188 Z M 4.890625 41.625 " clip-rule="nonzero" />
    </clipPath>
    <clipPath id="cfbfe45550">
      <rect x="0" width="55" y="0" height="53" />
    </clipPath>
    <clipPath id="077a6981dc">
      <path d="M 266.523438 0.675781 L 321.3125 0.675781 L 321.3125 52.242188 L 266.523438 52.242188 Z M 266.523438 0.675781 " clip-rule="nonzero" />
    </clipPath>
    <clipPath id="ef98436599">
      <path d="M 271.566406 41.625 L 279.453125 30.804688 L 266.710938 26.660156 L 272.273438 9.472656 L 285.011719 13.617188 L 285.011719 0.675781 L 303.011719 0.675781 L 303.011719 13.617188 L 315.75 9.472656 L 321.3125 26.660156 L 308.570312 30.804688 L 316.457031 41.625 L 301.898438 52.242188 L 294.011719 41.421875 L 286.125 52.242188 Z M 271.566406 41.625 " clip-rule="nonzero" />
    </clipPath>
    <clipPath id="d5b7bc50eb">
      <path d="M 0.679688 0.675781 L 55.3125 0.675781 L 55.3125 52.242188 L 0.679688 52.242188 Z M 0.679688 0.675781 " clip-rule="nonzero" />
    </clipPath>
    <clipPath id="eecb0ccd62">
      <path d="M 5.566406 41.625 L 13.453125 30.804688 L 0.710938 26.660156 L 6.273438 9.472656 L 19.011719 13.617188 L 19.011719 0.675781 L 37.011719 0.675781 L 37.011719 13.617188 L 49.75 9.472656 L 55.3125 26.660156 L 42.570312 30.804688 L 50.457031 41.625 L 35.898438 52.242188 L 28.011719 41.421875 L 20.125 52.242188 Z M 5.566406 41.625 " clip-rule="nonzero" />
    </clipPath>
    <clipPath id="4535d1353b">
      <rect x="0" width="56" y="0" height="53" />
    </clipPath>
    <clipPath id="17221a968b">
      <path d="M 0.5 0.675781 L 55.285156 0.675781 L 55.285156 52.242188 L 0.5 52.242188 Z M 0.5 0.675781 " clip-rule="nonzero" />
    </clipPath>
    <clipPath id="5765905744">
      <path d="M 5.542969 41.625 L 13.429688 30.804688 L 0.6875 26.660156 L 6.25 9.472656 L 18.988281 13.617188 L 18.988281 0.675781 L 36.984375 0.675781 L 36.984375 13.617188 L 49.726562 9.472656 L 55.285156 26.660156 L 42.546875 30.804688 L 50.433594 41.625 L 35.875 52.242188 L 27.988281 41.421875 L 20.101562 52.242188 Z M 5.542969 41.625 " clip-rule="nonzero" />
    </clipPath>
    <clipPath id="546a682dc8">
      <path d="M 0.519531 0.675781 L 55.285156 0.675781 L 55.285156 52.242188 L 0.519531 52.242188 Z M 0.519531 0.675781 " clip-rule="nonzero" />
    </clipPath>
    <clipPath id="5a4d1130f5">
      <path d="M 5.542969 41.625 L 13.429688 30.804688 L 0.6875 26.660156 L 6.25 9.472656 L 18.988281 13.617188 L 18.988281 0.675781 L 36.984375 0.675781 L 36.984375 13.617188 L 49.726562 9.472656 L 55.285156 26.660156 L 42.546875 30.804688 L 50.433594 41.625 L 35.875 52.242188 L 27.988281 41.421875 L 20.101562 52.242188 Z M 5.542969 41.625 " clip-rule="nonzero" />
    </clipPath>
    <clipPath id="2bd215c77a">
      <rect x="0" width="56" y="0" height="53" />
    </clipPath>
    <clipPath id="03e5047e26">
      <rect x="0" width="322" y="0" height="53" />
    </clipPath>
    <clipPath id="f69123702a">
      <path d="M 637.558594 688.265625 L 692.347656 688.265625 L 692.347656 739.832031 L 637.558594 739.832031 Z M 637.558594 688.265625 " clip-rule="nonzero" />
    </clipPath>
    <clipPath id="a68f288627">
      <path d="M 642.601562 729.214844 L 650.488281 718.394531 L 637.75 714.25 L 643.308594 697.0625 L 656.050781 701.207031 L 656.050781 688.265625 L 674.046875 688.265625 L 674.046875 701.207031 L 686.785156 697.0625 L 692.347656 714.25 L 679.609375 718.394531 L 687.496094 729.214844 L 672.933594 739.832031 L 665.046875 729.011719 L 657.160156 739.832031 Z M 642.601562 729.214844 " clip-rule="nonzero" />
    </clipPath>
    <clipPath id="54c1284657">
      <path d="M 0.679688 0.265625 L 55.347656 0.265625 L 55.347656 51.832031 L 0.679688 51.832031 Z M 0.679688 0.265625 " clip-rule="nonzero" />
    </clipPath>
    <clipPath id="9bced9f375">
      <path d="M 5.601562 41.214844 L 13.488281 30.394531 L 0.75 26.25 L 6.308594 9.0625 L 19.050781 13.207031 L 19.050781 0.265625 L 37.046875 0.265625 L 37.046875 13.207031 L 49.785156 9.0625 L 55.347656 26.25 L 42.609375 30.394531 L 50.496094 41.214844 L 35.933594 51.832031 L 28.046875 41.011719 L 20.160156 51.832031 Z M 5.601562 41.214844 " clip-rule="nonzero" />
    </clipPath>
    <clipPath id="5349922fe0">
      <rect x="0" width="56" y="0" height="52" />
    </clipPath>
    <clipPath id="9c40742071">
      <path d="M 726.234375 688.265625 L 781.023438 688.265625 L 781.023438 739.832031 L 726.234375 739.832031 Z M 726.234375 688.265625 " clip-rule="nonzero" />
    </clipPath>
    <clipPath id="e2ecfd91cd">
      <path d="M 731.277344 729.214844 L 739.164062 718.394531 L 726.425781 714.25 L 731.984375 697.0625 L 744.722656 701.207031 L 744.722656 688.265625 L 762.722656 688.265625 L 762.722656 701.207031 L 775.460938 697.0625 L 781.023438 714.25 L 768.28125 718.394531 L 776.167969 729.214844 L 761.609375 739.832031 L 753.722656 729.011719 L 745.835938 739.832031 Z M 731.277344 729.214844 " clip-rule="nonzero" />
    </clipPath>
    <clipPath id="635691d9f4">
      <path d="M 0.238281 0.265625 L 55.023438 0.265625 L 55.023438 51.832031 L 0.238281 51.832031 Z M 0.238281 0.265625 " clip-rule="nonzero" />
    </clipPath>
    <clipPath id="14b7e5198f">
      <path d="M 5.277344 41.214844 L 13.164062 30.394531 L 0.425781 26.25 L 5.984375 9.0625 L 18.722656 13.207031 L 18.722656 0.265625 L 36.722656 0.265625 L 36.722656 13.207031 L 49.460938 9.0625 L 55.023438 26.25 L 42.28125 30.394531 L 50.167969 41.214844 L 35.609375 51.832031 L 27.722656 41.011719 L 19.835938 51.832031 Z M 5.277344 41.214844 " clip-rule="nonzero" />
    </clipPath>
    <clipPath id="0b5555565e">
      <rect x="0" width="56" y="0" height="52" />
    </clipPath>
    <clipPath id="26fc175da0">
      <path d="M 549 688.265625 L 603.671875 688.265625 L 603.671875 739.832031 L 549 739.832031 Z M 549 688.265625 " clip-rule="nonzero" />
    </clipPath>
    <clipPath id="5c184b77aa">
      <path d="M 553.929688 729.214844 L 561.8125 718.394531 L 549.074219 714.25 L 554.636719 697.0625 L 567.375 701.207031 L 567.375 688.265625 L 585.371094 688.265625 L 585.371094 701.207031 L 598.113281 697.0625 L 603.671875 714.25 L 590.933594 718.394531 L 598.820312 729.214844 L 584.261719 739.832031 L 576.375 729.011719 L 568.488281 739.832031 Z M 553.929688 729.214844 " clip-rule="nonzero" />
    </clipPath>
    <clipPath id="af05166064">
      <path d="M 0 0.265625 L 54.671875 0.265625 L 54.671875 51.832031 L 0 51.832031 Z M 0 0.265625 " clip-rule="nonzero" />
    </clipPath>
    <clipPath id="6021b847dd">
      <path d="M 4.929688 41.214844 L 12.8125 30.394531 L 0.0742188 26.25 L 5.636719 9.0625 L 18.375 13.207031 L 18.375 0.265625 L 36.371094 0.265625 L 36.371094 13.207031 L 49.113281 9.0625 L 54.671875 26.25 L 41.933594 30.394531 L 49.820312 41.214844 L 35.261719 51.832031 L 27.375 41.011719 L 19.488281 51.832031 Z M 4.929688 41.214844 " clip-rule="nonzero" />
    </clipPath>
    <clipPath id="7588a14a50">
      <rect x="0" width="55" y="0" height="52" />
    </clipPath>
    <clipPath id="b9f15935da">
      <path d="M 89.222656 0.894531 L 144.007812 0.894531 L 144.007812 52.460938 L 89.222656 52.460938 Z M 89.222656 0.894531 " clip-rule="nonzero" />
    </clipPath>
    <clipPath id="94477d3df8">
      <path d="M 94.265625 41.84375 L 102.152344 31.027344 L 89.410156 26.878906 L 94.972656 9.691406 L 107.710938 13.835938 L 107.710938 0.894531 L 125.707031 0.894531 L 125.707031 13.835938 L 138.449219 9.691406 L 144.007812 26.878906 L 131.269531 31.027344 L 139.15625 41.84375 L 124.597656 52.460938 L 116.710938 41.640625 L 108.824219 52.460938 Z M 94.265625 41.84375 " clip-rule="nonzero" />
    </clipPath>
    <clipPath id="f545d2bceb">
      <path d="M 0.28125 0.894531 L 55.007812 0.894531 L 55.007812 52.460938 L 0.28125 52.460938 Z M 0.28125 0.894531 " clip-rule="nonzero" />
    </clipPath>
    <clipPath id="d3f3fa52cb">
      <path d="M 5.265625 41.84375 L 13.152344 31.027344 L 0.410156 26.878906 L 5.972656 9.691406 L 18.710938 13.835938 L 18.710938 0.894531 L 36.707031 0.894531 L 36.707031 13.835938 L 49.449219 9.691406 L 55.007812 26.878906 L 42.269531 31.027344 L 50.15625 41.84375 L 35.597656 52.460938 L 27.710938 41.640625 L 19.824219 52.460938 Z M 5.265625 41.84375 " clip-rule="nonzero" />
    </clipPath>
    <clipPath id="7174cc33e9">
      <rect x="0" width="56" y="0" height="53" />
    </clipPath>
    <clipPath id="f6c8b6888e">
      <path d="M 178 0.894531 L 232.683594 0.894531 L 232.683594 52.460938 L 178 52.460938 Z M 178 0.894531 " clip-rule="nonzero" />
    </clipPath>
    <clipPath id="bad38317cb">
      <path d="M 182.9375 41.84375 L 190.824219 31.027344 L 178.085938 26.878906 L 183.648438 9.691406 L 196.386719 13.835938 L 196.386719 0.894531 L 214.382812 0.894531 L 214.382812 13.835938 L 227.121094 9.691406 L 232.683594 26.878906 L 219.945312 31.027344 L 227.832031 41.84375 L 213.269531 52.460938 L 205.382812 41.640625 L 197.5 52.460938 Z M 182.9375 41.84375 " clip-rule="nonzero" />
    </clipPath>
    <clipPath id="24710d1c03">
      <path d="M 0.078125 0.894531 L 54.683594 0.894531 L 54.683594 52.460938 L 0.078125 52.460938 Z M 0.078125 0.894531 " clip-rule="nonzero" />
    </clipPath>
    <clipPath id="9917549e49">
      <path d="M 4.9375 41.84375 L 12.824219 31.027344 L 0.0859375 26.878906 L 5.648438 9.691406 L 18.386719 13.835938 L 18.386719 0.894531 L 36.382812 0.894531 L 36.382812 13.835938 L 49.121094 9.691406 L 54.683594 26.878906 L 41.945312 31.027344 L 49.832031 41.84375 L 35.269531 52.460938 L 27.382812 41.640625 L 19.5 52.460938 Z M 4.9375 41.84375 " clip-rule="nonzero" />
    </clipPath>
    <clipPath id="ab9e0bae04">
      <rect x="0" width="55" y="0" height="53" />
    </clipPath>
    <clipPath id="273f01b2f3">
      <path d="M 266.570312 0.894531 L 321.359375 0.894531 L 321.359375 52.460938 L 266.570312 52.460938 Z M 266.570312 0.894531 " clip-rule="nonzero" />
    </clipPath>
    <clipPath id="c1609bca0e">
      <path d="M 271.613281 41.84375 L 279.5 31.027344 L 266.761719 26.878906 L 272.320312 9.691406 L 285.0625 13.835938 L 285.0625 0.894531 L 303.058594 0.894531 L 303.058594 13.835938 L 315.796875 9.691406 L 321.359375 26.878906 L 308.617188 31.027344 L 316.503906 41.84375 L 301.945312 52.460938 L 294.058594 41.640625 L 286.171875 52.460938 Z M 271.613281 41.84375 " clip-rule="nonzero" />
    </clipPath>
    <clipPath id="b08cafa647">
      <path d="M 0.640625 0.894531 L 55.359375 0.894531 L 55.359375 52.460938 L 0.640625 52.460938 Z M 0.640625 0.894531 " clip-rule="nonzero" />
    </clipPath>
    <clipPath id="7b103c43a3">
      <path d="M 5.613281 41.84375 L 13.5 31.027344 L 0.761719 26.878906 L 6.320312 9.691406 L 19.0625 13.835938 L 19.0625 0.894531 L 37.058594 0.894531 L 37.058594 13.835938 L 49.796875 9.691406 L 55.359375 26.878906 L 42.617188 31.027344 L 50.503906 41.84375 L 35.945312 52.460938 L 28.058594 41.640625 L 20.171875 52.460938 Z M 5.613281 41.84375 " clip-rule="nonzero" />
    </clipPath>
    <clipPath id="cae1b3ce19">
      <rect x="0" width="56" y="0" height="53" />
    </clipPath>
    <clipPath id="d275fb0ab8">
      <path d="M 0.546875 0.894531 L 55.335938 0.894531 L 55.335938 52.460938 L 0.546875 52.460938 Z M 0.546875 0.894531 " clip-rule="nonzero" />
    </clipPath>
    <clipPath id="0deaea4012">
      <path d="M 5.589844 41.84375 L 13.476562 31.027344 L 0.734375 26.878906 L 6.296875 9.691406 L 19.035156 13.835938 L 19.035156 0.894531 L 37.035156 0.894531 L 37.035156 13.835938 L 49.773438 9.691406 L 55.335938 26.878906 L 42.59375 31.027344 L 50.480469 41.84375 L 35.921875 52.460938 L 28.035156 41.640625 L 20.148438 52.460938 Z M 5.589844 41.84375 " clip-rule="nonzero" />
    </clipPath>
    <clipPath id="62609fdb7e">
      <path d="M 0.71875 0.894531 L 55.335938 0.894531 L 55.335938 52.460938 L 0.71875 52.460938 Z M 0.71875 0.894531 " clip-rule="nonzero" />
    </clipPath>
    <clipPath id="74d79a220e">
      <path d="M 5.589844 41.84375 L 13.476562 31.027344 L 0.734375 26.878906 L 6.296875 9.691406 L 19.035156 13.835938 L 19.035156 0.894531 L 37.035156 0.894531 L 37.035156 13.835938 L 49.773438 9.691406 L 55.335938 26.878906 L 42.59375 31.027344 L 50.480469 41.84375 L 35.921875 52.460938 L 28.035156 41.640625 L 20.148438 52.460938 Z M 5.589844 41.84375 " clip-rule="nonzero" />
    </clipPath>
    <clipPath id="1925694f85">
      <rect x="0" width="56" y="0" height="53" />
    </clipPath>
    <clipPath id="673feaa4ac">
      <rect x="0" width="322" y="0" height="53" />
    </clipPath>
    <clipPath id="817ee7bed5">
      <path d="M 89.222656 0.753906 L 144.007812 0.753906 L 144.007812 52.320312 L 89.222656 52.320312 Z M 89.222656 0.753906 " clip-rule="nonzero" />
    </clipPath>
    <clipPath id="71ef10de77">
      <path d="M 94.265625 41.703125 L 102.152344 30.882812 L 89.410156 26.738281 L 94.972656 9.550781 L 107.710938 13.695312 L 107.710938 0.753906 L 125.707031 0.753906 L 125.707031 13.695312 L 138.449219 9.550781 L 144.007812 26.738281 L 131.269531 30.882812 L 139.15625 41.703125 L 124.597656 52.320312 L 116.710938 41.5 L 108.824219 52.320312 Z M 94.265625 41.703125 " clip-rule="nonzero" />
    </clipPath>
    <clipPath id="02fa166f89">
      <path d="M 0.28125 0.753906 L 55.007812 0.753906 L 55.007812 52.320312 L 0.28125 52.320312 Z M 0.28125 0.753906 " clip-rule="nonzero" />
    </clipPath>
    <clipPath id="9354fef1f7">
      <path d="M 5.265625 41.703125 L 13.152344 30.882812 L 0.410156 26.738281 L 5.972656 9.550781 L 18.710938 13.695312 L 18.710938 0.753906 L 36.707031 0.753906 L 36.707031 13.695312 L 49.449219 9.550781 L 55.007812 26.738281 L 42.269531 30.882812 L 50.15625 41.703125 L 35.597656 52.320312 L 27.710938 41.5 L 19.824219 52.320312 Z M 5.265625 41.703125 " clip-rule="nonzero" />
    </clipPath>
    <clipPath id="8a72cd947e">
      <rect x="0" width="56" y="0" height="53" />
    </clipPath>
    <clipPath id="78ce1e7f97">
      <path d="M 178 0.753906 L 232.683594 0.753906 L 232.683594 52.320312 L 178 52.320312 Z M 178 0.753906 " clip-rule="nonzero" />
    </clipPath>
    <clipPath id="2804e43c1f">
      <path d="M 182.9375 41.703125 L 190.824219 30.882812 L 178.085938 26.738281 L 183.648438 9.550781 L 196.386719 13.695312 L 196.386719 0.753906 L 214.382812 0.753906 L 214.382812 13.695312 L 227.121094 9.550781 L 232.683594 26.738281 L 219.945312 30.882812 L 227.832031 41.703125 L 213.269531 52.320312 L 205.382812 41.5 L 197.5 52.320312 Z M 182.9375 41.703125 " clip-rule="nonzero" />
    </clipPath>
    <clipPath id="9a202d3097">
      <path d="M 0.078125 0.753906 L 54.683594 0.753906 L 54.683594 52.320312 L 0.078125 52.320312 Z M 0.078125 0.753906 " clip-rule="nonzero" />
    </clipPath>
    <clipPath id="07070dd7ad">
      <path d="M 4.9375 41.703125 L 12.824219 30.882812 L 0.0859375 26.738281 L 5.648438 9.550781 L 18.386719 13.695312 L 18.386719 0.753906 L 36.382812 0.753906 L 36.382812 13.695312 L 49.121094 9.550781 L 54.683594 26.738281 L 41.945312 30.882812 L 49.832031 41.703125 L 35.269531 52.320312 L 27.382812 41.5 L 19.5 52.320312 Z M 4.9375 41.703125 " clip-rule="nonzero" />
    </clipPath>
    <clipPath id="c98b12b93e">
      <rect x="0" width="55" y="0" height="53" />
    </clipPath>
    <clipPath id="b3c422000f">
      <path d="M 266.570312 0.753906 L 321.359375 0.753906 L 321.359375 52.320312 L 266.570312 52.320312 Z M 266.570312 0.753906 " clip-rule="nonzero" />
    </clipPath>
    <clipPath id="b6b166e909">
      <path d="M 271.613281 41.703125 L 279.5 30.882812 L 266.761719 26.738281 L 272.320312 9.550781 L 285.0625 13.695312 L 285.0625 0.753906 L 303.058594 0.753906 L 303.058594 13.695312 L 315.796875 9.550781 L 321.359375 26.738281 L 308.617188 30.882812 L 316.503906 41.703125 L 301.945312 52.320312 L 294.058594 41.5 L 286.171875 52.320312 Z M 271.613281 41.703125 " clip-rule="nonzero" />
    </clipPath>
    <clipPath id="9221b2f514">
      <path d="M 0.640625 0.753906 L 55.359375 0.753906 L 55.359375 52.320312 L 0.640625 52.320312 Z M 0.640625 0.753906 " clip-rule="nonzero" />
    </clipPath>
    <clipPath id="e83240791b">
      <path d="M 5.613281 41.703125 L 13.5 30.882812 L 0.761719 26.738281 L 6.320312 9.550781 L 19.0625 13.695312 L 19.0625 0.753906 L 37.058594 0.753906 L 37.058594 13.695312 L 49.796875 9.550781 L 55.359375 26.738281 L 42.617188 30.882812 L 50.503906 41.703125 L 35.945312 52.320312 L 28.058594 41.5 L 20.171875 52.320312 Z M 5.613281 41.703125 " clip-rule="nonzero" />
    </clipPath>
    <clipPath id="2e88d0eceb">
      <rect x="0" width="56" y="0" height="53" />
    </clipPath>
    <clipPath id="fd1f494176">
      <path d="M 0.546875 0.753906 L 55.335938 0.753906 L 55.335938 52.320312 L 0.546875 52.320312 Z M 0.546875 0.753906 " clip-rule="nonzero" />
    </clipPath>
    <clipPath id="bb07ffe9ef">
      <path d="M 5.589844 41.703125 L 13.476562 30.882812 L 0.734375 26.738281 L 6.296875 9.550781 L 19.035156 13.695312 L 19.035156 0.753906 L 37.035156 0.753906 L 37.035156 13.695312 L 49.773438 9.550781 L 55.335938 26.738281 L 42.59375 30.882812 L 50.480469 41.703125 L 35.921875 52.320312 L 28.035156 41.5 L 20.148438 52.320312 Z M 5.589844 41.703125 " clip-rule="nonzero" />
    </clipPath>
    <clipPath id="5f76f7b2e3">
      <path d="M 0.71875 0.753906 L 55.335938 0.753906 L 55.335938 52.320312 L 0.71875 52.320312 Z M 0.71875 0.753906 " clip-rule="nonzero" />
    </clipPath>
    <clipPath id="fd216555fc">
      <path d="M 5.589844 41.703125 L 13.476562 30.882812 L 0.734375 26.738281 L 6.296875 9.550781 L 19.035156 13.695312 L 19.035156 0.753906 L 37.035156 0.753906 L 37.035156 13.695312 L 49.773438 9.550781 L 55.335938 26.738281 L 42.59375 30.882812 L 50.480469 41.703125 L 35.921875 52.320312 L 28.035156 41.5 L 20.148438 52.320312 Z M 5.589844 41.703125 " clip-rule="nonzero" />
    </clipPath>
    <clipPath id="bc0eb468ac">
      <rect x="0" width="56" y="0" height="53" />
    </clipPath>
    <clipPath id="37969347e6">
      <rect x="0" width="322" y="0" height="53" />
    </clipPath>
    <clipPath id="2b574966a5">
      <path d="M 636.511719 830.824219 L 691.300781 830.824219 L 691.300781 882.386719 L 636.511719 882.386719 Z M 636.511719 830.824219 " clip-rule="nonzero" />
    </clipPath>
    <clipPath id="dd4e5fb718">
      <path d="M 641.554688 871.773438 L 649.441406 860.953125 L 636.703125 856.808594 L 642.261719 839.621094 L 655.003906 843.765625 L 655.003906 830.824219 L 673 830.824219 L 673 843.765625 L 685.738281 839.621094 L 691.300781 856.808594 L 678.558594 860.953125 L 686.445312 871.773438 L 671.886719 882.386719 L 664 871.570312 L 656.113281 882.386719 Z M 641.554688 871.773438 " clip-rule="nonzero" />
    </clipPath>
    <clipPath id="15a95f19ba">
      <path d="M 0.511719 0.824219 L 55.300781 0.824219 L 55.300781 52.386719 L 0.511719 52.386719 Z M 0.511719 0.824219 " clip-rule="nonzero" />
    </clipPath>
    <clipPath id="4ada8c2e5c">
      <path d="M 5.554688 41.773438 L 13.441406 30.953125 L 0.703125 26.808594 L 6.261719 9.621094 L 19.003906 13.765625 L 19.003906 0.824219 L 37 0.824219 L 37 13.765625 L 49.738281 9.621094 L 55.300781 26.808594 L 42.558594 30.953125 L 50.445312 41.773438 L 35.886719 52.386719 L 28 41.570312 L 20.113281 52.386719 Z M 5.554688 41.773438 " clip-rule="nonzero" />
    </clipPath>
    <clipPath id="1659259a49">
      <rect x="0" width="56" y="0" height="53" />
    </clipPath>
    <clipPath id="d8b894698d">
      <path d="M 725.1875 830.824219 L 779.972656 830.824219 L 779.972656 882.386719 L 725.1875 882.386719 Z M 725.1875 830.824219 " clip-rule="nonzero" />
    </clipPath>
    <clipPath id="76bcfa26df">
      <path d="M 730.230469 871.773438 L 738.117188 860.953125 L 725.375 856.808594 L 730.9375 839.621094 L 743.675781 843.765625 L 743.675781 830.824219 L 761.675781 830.824219 L 761.675781 843.765625 L 774.414062 839.621094 L 779.972656 856.808594 L 767.234375 860.953125 L 775.121094 871.773438 L 760.5625 882.386719 L 752.675781 871.570312 L 744.789062 882.386719 Z M 730.230469 871.773438 " clip-rule="nonzero" />
    </clipPath>
    <clipPath id="943fb235a8">
      <path d="M 0.28125 0.824219 L 54.972656 0.824219 L 54.972656 52.386719 L 0.28125 52.386719 Z M 0.28125 0.824219 " clip-rule="nonzero" />
    </clipPath>
    <clipPath id="b7874f8dd3">
      <path d="M 5.230469 41.773438 L 13.117188 30.953125 L 0.375 26.808594 L 5.9375 9.621094 L 18.675781 13.765625 L 18.675781 0.824219 L 36.675781 0.824219 L 36.675781 13.765625 L 49.414062 9.621094 L 54.972656 26.808594 L 42.234375 30.953125 L 50.121094 41.773438 L 35.5625 52.386719 L 27.675781 41.570312 L 19.789062 52.386719 Z M 5.230469 41.773438 " clip-rule="nonzero" />
    </clipPath>
    <clipPath id="bb55594b75">
      <rect x="0" width="55" y="0" height="53" />
    </clipPath>
    <clipPath id="b6640ea995">
      <path d="M 548 830.824219 L 602.625 830.824219 L 602.625 882.386719 L 548 882.386719 Z M 548 830.824219 " clip-rule="nonzero" />
    </clipPath>
    <clipPath id="f469418689">
      <path d="M 552.878906 871.773438 L 560.765625 860.953125 L 548.027344 856.808594 L 553.589844 839.621094 L 566.328125 843.765625 L 566.328125 830.824219 L 584.324219 830.824219 L 584.324219 843.765625 L 597.0625 839.621094 L 602.625 856.808594 L 589.886719 860.953125 L 597.773438 871.773438 L 583.210938 882.386719 L 575.324219 871.570312 L 567.441406 882.386719 Z M 552.878906 871.773438 " clip-rule="nonzero" />
    </clipPath>
    <clipPath id="7c85c45851">
      <path d="M 0 0.824219 L 54.625 0.824219 L 54.625 52.386719 L 0 52.386719 Z M 0 0.824219 " clip-rule="nonzero" />
    </clipPath>
    <clipPath id="bcb0eb249f">
      <path d="M 4.878906 41.773438 L 12.765625 30.953125 L 0.0273438 26.808594 L 5.589844 9.621094 L 18.328125 13.765625 L 18.328125 0.824219 L 36.324219 0.824219 L 36.324219 13.765625 L 49.0625 9.621094 L 54.625 26.808594 L 41.886719 30.953125 L 49.773438 41.773438 L 35.210938 52.386719 L 27.324219 41.570312 L 19.441406 52.386719 Z M 4.878906 41.773438 " clip-rule="nonzero" />
    </clipPath>
    <clipPath id="23072f341f">
      <rect x="0" width="55" y="0" height="53" />
    </clipPath>
  </defs>
  <g clip-path="url(#4ddb9d6b2d)">
    <g transform="matrix(1, 0, 0, 1, 837, 612)">
      <g clip-path="url(#4e017fe151)">
        <g clip-path="url(#0b97ad614b)">
          <path fill="#ffffff" d="M 0.53125 0.832031 L 612.488281 0.832031 L 612.488281 350.523438 L 0.53125 350.523438 Z M 0.53125 0.832031 " fill-opacity="1" fill-rule="nonzero" />
        </g>
      </g>
    </g>
  </g>
  <g clip-path="url(#e3304bca0d)">
    <g transform="matrix(1, 0, 0, 1, 837, 890)">
      <g clip-path="url(#54f9a1fc17)">
        <g clip-path="url(#4cba767d8a)">
          <path fill="#ee0000" d="M 0.53125 0.808594 L 611.832031 0.808594 L 611.832031 70.421875 L 0.53125 70.421875 Z M 0.53125 0.808594 " fill-opacity="1" fill-rule="nonzero" />
        </g>
      </g>
    </g>
  </g>
  <g clip-path="url(#c4756a208b)">
    <g transform="matrix(1, 0, 0, 1, 487, 611)">
      <g clip-path="url(#998d56baaa)">
        <g clip-path="url(#bea30ae91a)">
          <path fill="#1649ff" d="M 0.929688 0.578125 L 350.53125 0.578125 L 350.53125 350.179688 L 0.929688 350.179688 Z M 0.929688 0.578125 " fill-opacity="1" fill-rule="nonzero" />
        </g>
      </g>
    </g>
  </g>
  <g clip-path="url(#1db40e8a61)">
    <g transform="matrix(1, 0, 0, 1, 837, 611)">
      <g clip-path="url(#4c47a0023a)">
        <g clip-path="url(#beec6c7325)">
          <path fill="#ee0000" d="M 0.53125 0.578125 L 611.765625 0.578125 L 611.765625 70.339844 L 0.53125 70.339844 Z M 0.53125 0.578125 " fill-opacity="1" fill-rule="nonzero" />
        </g>
      </g>
    </g>
  </g>
  <g clip-path="url(#9f30351e7f)">
    <g transform="matrix(1, 0, 0, 1, 837, 749)">
      <g clip-path="url(#cde0d7e29e)">
        <g clip-path="url(#73de074b99)">
          <path fill="#ff6100" d="M 0.53125 0.519531 L 611.683594 0.519531 L 611.683594 76.839844 L 0.53125 76.839844 Z M 0.53125 0.519531 " fill-opacity="1" fill-rule="nonzero" />
        </g>
      </g>
    </g>
  </g>
  <g transform="matrix(1, 0, 0, 1, 503, 620)">
    <g clip-path="url(#03e5047e26)">
      <g clip-path="url(#e339a2817a)">
        <g clip-path="url(#3057d26c50)">
          <g transform="matrix(1, 0, 0, 1, 89, 0.000000000000113687)">
            <g clip-path="url(#2576409586)">
              <g clip-path="url(#ae27cd00a5)">
                <g clip-path="url(#b4cb6e5908)">
                  <path fill="#ffffff" d="M 54.960938 52.242188 L 0.375 52.242188 L 0.375 0.675781 L 54.960938 0.675781 Z M 54.960938 52.242188 " fill-opacity="1" fill-rule="nonzero" />
                </g>
              </g>
            </g>
          </g>
        </g>
      </g>
      <g clip-path="url(#78d792c19d)">
        <g clip-path="url(#d6a79f947a)">
          <g transform="matrix(1, 0, 0, 1, 178, 0.000000000000113687)">
            <g clip-path="url(#cfbfe45550)">
              <g clip-path="url(#7f5d0efc42)">
                <g clip-path="url(#761e47fca4)">
                  <path fill="#ffffff" d="M 54.636719 52.242188 L 0.0507812 52.242188 L 0.0507812 0.675781 L 54.636719 0.675781 Z M 54.636719 52.242188 " fill-opacity="1" fill-rule="nonzero" />
                </g>
              </g>
            </g>
          </g>
        </g>
      </g>
      <g clip-path="url(#077a6981dc)">
        <g clip-path="url(#ef98436599)">
          <g transform="matrix(1, 0, 0, 1, 266, 0.000000000000113687)">
            <g clip-path="url(#4535d1353b)">
              <g clip-path="url(#d5b7bc50eb)">
                <g clip-path="url(#eecb0ccd62)">
                  <path fill="#ffffff" d="M 55.3125 52.242188 L 0.722656 52.242188 L 0.722656 0.675781 L 55.3125 0.675781 Z M 55.3125 52.242188 " fill-opacity="1" fill-rule="nonzero" />
                </g>
              </g>
            </g>
          </g>
        </g>
      </g>
      <g clip-path="url(#17221a968b)">
        <g clip-path="url(#5765905744)">
          <g transform="matrix(1, 0, 0, 1, 0.000000000000056843, 0.000000000000113687)">
            <g clip-path="url(#2bd215c77a)">
              <g clip-path="url(#546a682dc8)">
                <g clip-path="url(#5a4d1130f5)">
                  <path fill="#ffffff" d="M 55.285156 52.242188 L 0.699219 52.242188 L 0.699219 0.675781 L 55.285156 0.675781 Z M 55.285156 52.242188 " fill-opacity="1" fill-rule="nonzero" />
                </g>
              </g>
            </g>
          </g>
        </g>
      </g>
    </g>
  </g>
  <g clip-path="url(#f69123702a)">
    <g clip-path="url(#a68f288627)">
      <g transform="matrix(1, 0, 0, 1, 637, 688)">
        <g clip-path="url(#5349922fe0)">
          <g clip-path="url(#54c1284657)">
            <g clip-path="url(#9bced9f375)">
              <path fill="#ffffff" d="M 55.347656 51.832031 L 0.761719 51.832031 L 0.761719 0.265625 L 55.347656 0.265625 Z M 55.347656 51.832031 " fill-opacity="1" fill-rule="nonzero" />
            </g>
          </g>
        </g>
      </g>
    </g>
  </g>
  <g clip-path="url(#9c40742071)">
    <g clip-path="url(#e2ecfd91cd)">
      <g transform="matrix(1, 0, 0, 1, 726, 688)">
        <g clip-path="url(#0b5555565e)">
          <g clip-path="url(#635691d9f4)">
            <g clip-path="url(#14b7e5198f)">
              <path fill="#ffffff" d="M 55.023438 51.832031 L 0.4375 51.832031 L 0.4375 0.265625 L 55.023438 0.265625 Z M 55.023438 51.832031 " fill-opacity="1" fill-rule="nonzero" />
            </g>
          </g>
        </g>
      </g>
    </g>
  </g>
  <g clip-path="url(#26fc175da0)">
    <g clip-path="url(#5c184b77aa)">
      <g transform="matrix(1, 0, 0, 1, 549, 688)">
        <g clip-path="url(#7588a14a50)">
          <g clip-path="url(#af05166064)">
            <g clip-path="url(#6021b847dd)">
              <path fill="#ffffff" d="M 54.671875 51.832031 L 0.0859375 51.832031 L 0.0859375 0.265625 L 54.671875 0.265625 Z M 54.671875 51.832031 " fill-opacity="1" fill-rule="nonzero" />
            </g>
          </g>
        </g>
      </g>
    </g>
  </g>
  <g transform="matrix(1, 0, 0, 1, 504, 761)">
    <g clip-path="url(#673feaa4ac)">
      <g clip-path="url(#b9f15935da)">
        <g clip-path="url(#94477d3df8)">
          <g transform="matrix(1, 0, 0, 1, 89, 0.000000000000113687)">
            <g clip-path="url(#7174cc33e9)">
              <g clip-path="url(#f545d2bceb)">
                <g clip-path="url(#d3f3fa52cb)">
                  <path fill="#ffffff" d="M 55.007812 52.460938 L 0.421875 52.460938 L 0.421875 0.894531 L 55.007812 0.894531 Z M 55.007812 52.460938 " fill-opacity="1" fill-rule="nonzero" />
                </g>
              </g>
            </g>
          </g>
        </g>
      </g>
      <g clip-path="url(#f6c8b6888e)">
        <g clip-path="url(#bad38317cb)">
          <g transform="matrix(1, 0, 0, 1, 178, 0.000000000000113687)">
            <g clip-path="url(#ab9e0bae04)">
              <g clip-path="url(#24710d1c03)">
                <g clip-path="url(#9917549e49)">
                  <path fill="#ffffff" d="M 54.683594 52.460938 L 0.0976562 52.460938 L 0.0976562 0.894531 L 54.683594 0.894531 Z M 54.683594 52.460938 " fill-opacity="1" fill-rule="nonzero" />
                </g>
              </g>
            </g>
          </g>
        </g>
      </g>
      <g clip-path="url(#273f01b2f3)">
        <g clip-path="url(#c1609bca0e)">
          <g transform="matrix(1, 0, 0, 1, 266, 0.000000000000113687)">
            <g clip-path="url(#cae1b3ce19)">
              <g clip-path="url(#b08cafa647)">
                <g clip-path="url(#7b103c43a3)">
                  <path fill="#ffffff" d="M 55.359375 52.460938 L 0.773438 52.460938 L 0.773438 0.894531 L 55.359375 0.894531 Z M 55.359375 52.460938 " fill-opacity="1" fill-rule="nonzero" />
                </g>
              </g>
            </g>
          </g>
        </g>
      </g>
      <g clip-path="url(#d275fb0ab8)">
        <g clip-path="url(#0deaea4012)">
          <g transform="matrix(1, 0, 0, 1, 0.000000000000056843, 0.000000000000113687)">
            <g clip-path="url(#1925694f85)">
              <g clip-path="url(#62609fdb7e)">
                <g clip-path="url(#74d79a220e)">
                  <path fill="#ffffff" d="M 55.335938 52.460938 L 0.75 52.460938 L 0.75 0.894531 L 55.335938 0.894531 Z M 55.335938 52.460938 " fill-opacity="1" fill-rule="nonzero" />
                </g>
              </g>
            </g>
          </g>
        </g>
      </g>
    </g>
  </g>
  <g transform="matrix(1, 0, 0, 1, 504, 899)">
    <g clip-path="url(#37969347e6)">
      <g clip-path="url(#817ee7bed5)">
        <g clip-path="url(#71ef10de77)">
          <g transform="matrix(1, 0, 0, 1, 89, 0.000000000000113687)">
            <g clip-path="url(#8a72cd947e)">
              <g clip-path="url(#02fa166f89)">
                <g clip-path="url(#9354fef1f7)">
                  <path fill="#ffffff" d="M 55.007812 52.320312 L 0.421875 52.320312 L 0.421875 0.753906 L 55.007812 0.753906 Z M 55.007812 52.320312 " fill-opacity="1" fill-rule="nonzero" />
                </g>
              </g>
            </g>
          </g>
        </g>
      </g>
      <g clip-path="url(#78ce1e7f97)">
        <g clip-path="url(#2804e43c1f)">
          <g transform="matrix(1, 0, 0, 1, 178, 0.000000000000113687)">
            <g clip-path="url(#c98b12b93e)">
              <g clip-path="url(#9a202d3097)">
                <g clip-path="url(#07070dd7ad)">
                  <path fill="#ffffff" d="M 54.683594 52.320312 L 0.0976562 52.320312 L 0.0976562 0.753906 L 54.683594 0.753906 Z M 54.683594 52.320312 " fill-opacity="1" fill-rule="nonzero" />
                </g>
              </g>
            </g>
          </g>
        </g>
      </g>
      <g clip-path="url(#b3c422000f)">
        <g clip-path="url(#b6b166e909)">
          <g transform="matrix(1, 0, 0, 1, 266, 0.000000000000113687)">
            <g clip-path="url(#2e88d0eceb)">
              <g clip-path="url(#9221b2f514)">
                <g clip-path="url(#e83240791b)">
                  <path fill="#ffffff" d="M 55.359375 52.320312 L 0.773438 52.320312 L 0.773438 0.753906 L 55.359375 0.753906 Z M 55.359375 52.320312 " fill-opacity="1" fill-rule="nonzero" />
                </g>
              </g>
            </g>
          </g>
        </g>
      </g>
      <g clip-path="url(#fd1f494176)">
        <g clip-path="url(#bb07ffe9ef)">
          <g transform="matrix(1, 0, 0, 1, 0.000000000000056843, 0.000000000000113687)">
            <g clip-path="url(#bc0eb468ac)">
              <g clip-path="url(#5f76f7b2e3)">
                <g clip-path="url(#fd216555fc)">
                  <path fill="#ffffff" d="M 55.335938 52.320312 L 0.75 52.320312 L 0.75 0.753906 L 55.335938 0.753906 Z M 55.335938 52.320312 " fill-opacity="1" fill-rule="nonzero" />
                </g>
              </g>
            </g>
          </g>
        </g>
      </g>
    </g>
  </g>
  <g clip-path="url(#2b574966a5)">
    <g clip-path="url(#dd4e5fb718)">
      <g transform="matrix(1, 0, 0, 1, 636, 830)">
        <g clip-path="url(#1659259a49)">
          <g clip-path="url(#15a95f19ba)">
            <g clip-path="url(#4ada8c2e5c)">
              <path fill="#ffffff" d="M 55.300781 52.386719 L 0.714844 52.386719 L 0.714844 0.824219 L 55.300781 0.824219 Z M 55.300781 52.386719 " fill-opacity="1" fill-rule="nonzero" />
            </g>
          </g>
        </g>
      </g>
    </g>
  </g>
  <g clip-path="url(#d8b894698d)">
    <g clip-path="url(#76bcfa26df)">
      <g transform="matrix(1, 0, 0, 1, 725, 830)">
        <g clip-path="url(#bb55594b75)">
          <g clip-path="url(#943fb235a8)">
            <g clip-path="url(#b7874f8dd3)">
              <path fill="#ffffff" d="M 54.972656 52.386719 L 0.386719 52.386719 L 0.386719 0.824219 L 54.972656 0.824219 Z M 54.972656 52.386719 " fill-opacity="1" fill-rule="nonzero" />
            </g>
          </g>
        </g>
      </g>
    </g>
  </g>
  <g clip-path="url(#b6640ea995)">
    <g clip-path="url(#f469418689)">
      <g transform="matrix(1, 0, 0, 1, 548, 830)">
        <g clip-path="url(#23072f341f)">
          <g clip-path="url(#7c85c45851)">
            <g clip-path="url(#bcb0eb249f)">
              <path fill="#ffffff" d="M 54.625 52.386719 L 0.0390625 52.386719 L 0.0390625 0.824219 L 54.625 0.824219 Z M 54.625 52.386719 " fill-opacity="1" fill-rule="nonzero" />
            </g>
          </g>
        </g>
      </g>
    </g>
  </g>
</svg>