<svg xmlns="http://www.w3.org/2000/svg" xmlns:xlink="http://www.w3.org/1999/xlink" width="2000" zoomAndPan="magnify" viewBox="0 0 1500 1499.999933" height="2000" preserveAspectRatio="xMidYMid meet" version="1.0"><defs><g/><clipPath id="776b199dab"><path d="M 37.5 620.871094 L 426 620.871094 L 426 902.921875 L 37.5 902.921875 Z M 37.5 620.871094 " clip-rule="nonzero"/></clipPath><clipPath id="6a7b1d8137"><path d="M 115.5 620.871094 L 347.378906 620.871094 C 390.457031 620.871094 425.378906 655.792969 425.378906 698.871094 L 425.378906 824.921875 C 425.378906 868 390.457031 902.921875 347.378906 902.921875 L 115.5 902.921875 C 72.421875 902.921875 37.5 868 37.5 824.921875 L 37.5 698.871094 C 37.5 655.792969 72.421875 620.871094 115.5 620.871094 Z M 115.5 620.871094 " clip-rule="nonzero"/></clipPath><clipPath id="363d5320ad"><path d="M 0.5 0.871094 L 388.519531 0.871094 L 388.519531 282.921875 L 0.5 282.921875 Z M 0.5 0.871094 " clip-rule="nonzero"/></clipPath><clipPath id="abc9f03b2b"><path d="M 78.5 0.871094 L 310.378906 0.871094 C 353.457031 0.871094 388.378906 35.792969 388.378906 78.871094 L 388.378906 204.921875 C 388.378906 248 353.457031 282.921875 310.378906 282.921875 L 78.5 282.921875 C 35.421875 282.921875 0.5 248 0.5 204.921875 L 0.5 78.871094 C 0.5 35.792969 35.421875 0.871094 78.5 0.871094 Z M 78.5 0.871094 " clip-rule="nonzero"/></clipPath><clipPath id="105e9d922b"><rect x="0" width="389" y="0" height="283"/></clipPath><clipPath id="1a08a38c6d"><path d="M 65.550781 677.332031 L 118 677.332031 L 118 846.832031 L 65.550781 846.832031 Z M 65.550781 677.332031 " clip-rule="nonzero"/></clipPath><clipPath id="19a66b1e82"><path d="M 341 677.332031 L 393.292969 677.332031 L 393.292969 846.832031 L 341 846.832031 Z M 341 677.332031 " clip-rule="nonzero"/></clipPath><clipPath id="4ddb9d6b2d"><path d="M 837.53125 612.832031 L 1448.832031 612.832031 L 1448.832031 962.523438 L 837.53125 962.523438 Z M 837.53125 612.832031 " clip-rule="nonzero"/></clipPath><clipPath id="0b97ad614b"><path d="M 0.53125 0.832031 L 611.832031 0.832031 L 611.832031 350.523438 L 0.53125 350.523438 Z M 0.53125 0.832031 " clip-rule="nonzero"/></clipPath><clipPath id="4e017fe151"><rect x="0" width="612" y="0" height="351"/></clipPath><clipPath id="e3304bca0d"><path d="M 837.53125 890.808594 L 1448.832031 890.808594 L 1448.832031 960.421875 L 837.53125 960.421875 Z M 837.53125 890.808594 " clip-rule="nonzero"/></clipPath><clipPath id="4cba767d8a"><path d="M 0.53125 0.808594 L 611.832031 0.808594 L 611.832031 70.421875 L 0.53125 70.421875 Z M 0.53125 0.808594 " clip-rule="nonzero"/></clipPath><clipPath id="54f9a1fc17"><rect x="0" width="612" y="0" height="71"/></clipPath><clipPath id="c4756a208b"><path d="M 487.929688 611.578125 L 837.53125 611.578125 L 837.53125 961.269531 L 487.929688 961.269531 Z M 487.929688 611.578125 " clip-rule="nonzero"/></clipPath><clipPath id="bea30ae91a"><path d="M 0.929688 0.578125 L 350.53125 0.578125 L 350.53125 350.269531 L 0.929688 350.269531 Z M 0.929688 0.578125 " clip-rule="nonzero"/></clipPath><clipPath id="998d56baaa"><rect x="0" width="351" y="0" height="351"/></clipPath><clipPath id="1db40e8a61"><path d="M 837.53125 611.578125 L 1448.832031 611.578125 L 1448.832031 681.339844 L 837.53125 681.339844 Z M 837.53125 611.578125 " clip-rule="nonzero"/></clipPath><clipPath id="beec6c7325"><path d="M 0.53125 0.578125 L 611.832031 0.578125 L 611.832031 70.339844 L 0.53125 70.339844 Z M 0.53125 0.578125 " clip-rule="nonzero"/></clipPath><clipPath id="4c47a0023a"><rect x="0" width="612" y="0" height="71"/></clipPath><clipPath id="9f30351e7f"><path d="M 837.53125 749.519531 L 1448.832031 749.519531 L 1448.832031 825.839844 L 837.53125 825.839844 Z M 837.53125 749.519531 " clip-rule="nonzero"/></clipPath><clipPath id="73de074b99"><path d="M 0.53125 0.519531 L 611.832031 0.519531 L 611.832031 76.839844 L 0.53125 76.839844 Z M 0.53125 0.519531 " clip-rule="nonzero"/></clipPath><clipPath id="cde0d7e29e"><rect x="0" width="612" y="0" height="77"/></clipPath><clipPath id="e339a2817a"><path d="M 89.171875 0.675781 L 143.960938 0.675781 L 143.960938 52.242188 L 89.171875 52.242188 Z M 89.171875 0.675781 " clip-rule="nonzero"/></clipPath><clipPath id="3057d26c50"><path d="M 94.214844 41.625 L 102.101562 30.804688 L 89.363281 26.660156 L 94.925781 9.472656 L 107.664062 13.617188 L 107.664062 0.675781 L 125.660156 0.675781 L 125.660156 13.617188 L 138.402344 9.472656 L 143.960938 26.660156 L 131.222656 30.804688 L 139.109375 41.625 L 124.546875 52.242188 L 116.664062 41.421875 L 108.777344 52.242188 Z M 94.214844 41.625 " clip-rule="nonzero"/></clipPath><clipPath id="ae27cd00a5"><path d="M 0.320312 0.675781 L 54.960938 0.675781 L 54.960938 52.242188 L 0.320312 52.242188 Z M 0.320312 0.675781 " clip-rule="nonzero"/></clipPath><clipPath id="b4cb6e5908"><path d="M 5.214844 41.625 L 13.101562 30.804688 L 0.363281 26.660156 L 5.925781 9.472656 L 18.664062 13.617188 L 18.664062 0.675781 L 36.660156 0.675781 L 36.660156 13.617188 L 49.402344 9.472656 L 54.960938 26.660156 L 42.222656 30.804688 L 50.109375 41.625 L 35.546875 52.242188 L 27.664062 41.421875 L 19.777344 52.242188 Z M 5.214844 41.625 " clip-rule="nonzero"/></clipPath><clipPath id="2576409586"><rect x="0" width="55" y="0" height="53"/></clipPath><clipPath id="78d792c19d"><path d="M 178 0.675781 L 232.636719 0.675781 L 232.636719 52.242188 L 178 52.242188 Z M 178 0.675781 " clip-rule="nonzero"/></clipPath><clipPath id="d6a79f947a"><path d="M 182.890625 41.625 L 190.777344 30.804688 L 178.039062 26.660156 L 183.597656 9.472656 L 196.339844 13.617188 L 196.339844 0.675781 L 214.335938 0.675781 L 214.335938 13.617188 L 227.074219 9.472656 L 232.636719 26.660156 L 219.898438 30.804688 L 227.78125 41.625 L 213.222656 52.242188 L 205.335938 41.421875 L 197.449219 52.242188 Z M 182.890625 41.625 " clip-rule="nonzero"/></clipPath><clipPath id="7f5d0efc42"><path d="M 0 0.675781 L 54.636719 0.675781 L 54.636719 52.242188 L 0 52.242188 Z M 0 0.675781 " clip-rule="nonzero"/></clipPath><clipPath id="761e47fca4"><path d="M 4.890625 41.625 L 12.777344 30.804688 L 0.0390625 26.660156 L 5.597656 9.472656 L 18.339844 13.617188 L 18.339844 0.675781 L 36.335938 0.675781 L 36.335938 13.617188 L 49.074219 9.472656 L 54.636719 26.660156 L 41.898438 30.804688 L 49.78125 41.625 L 35.222656 52.242188 L 27.335938 41.421875 L 19.449219 52.242188 Z M 4.890625 41.625 " clip-rule="nonzero"/></clipPath><clipPath id="cfbfe45550"><rect x="0" width="55" y="0" height="53"/></clipPath><clipPath id="077a6981dc"><path d="M 266.523438 0.675781 L 321.3125 0.675781 L 321.3125 52.242188 L 266.523438 52.242188 Z M 266.523438 0.675781 " clip-rule="nonzero"/></clipPath><clipPath id="ef98436599"><path d="M 271.566406 41.625 L 279.453125 30.804688 L 266.710938 26.660156 L 272.273438 9.472656 L 285.011719 13.617188 L 285.011719 0.675781 L 303.011719 0.675781 L 303.011719 13.617188 L 315.75 9.472656 L 321.3125 26.660156 L 308.570312 30.804688 L 316.457031 41.625 L 301.898438 52.242188 L 294.011719 41.421875 L 286.125 52.242188 Z M 271.566406 41.625 " clip-rule="nonzero"/></clipPath><clipPath id="d5b7bc50eb"><path d="M 0.679688 0.675781 L 55.3125 0.675781 L 55.3125 52.242188 L 0.679688 52.242188 Z M 0.679688 0.675781 " clip-rule="nonzero"/></clipPath><clipPath id="eecb0ccd62"><path d="M 5.566406 41.625 L 13.453125 30.804688 L 0.710938 26.660156 L 6.273438 9.472656 L 19.011719 13.617188 L 19.011719 0.675781 L 37.011719 0.675781 L 37.011719 13.617188 L 49.75 9.472656 L 55.3125 26.660156 L 42.570312 30.804688 L 50.457031 41.625 L 35.898438 52.242188 L 28.011719 41.421875 L 20.125 52.242188 Z M 5.566406 41.625 " clip-rule="nonzero"/></clipPath><clipPath id="4535d1353b"><rect x="0" width="56" y="0" height="53"/></clipPath><clipPath id="17221a968b"><path d="M 0.5 0.675781 L 55.285156 0.675781 L 55.285156 52.242188 L 0.5 52.242188 Z M 0.5 0.675781 " clip-rule="nonzero"/></clipPath><clipPath id="5765905744"><path d="M 5.542969 41.625 L 13.429688 30.804688 L 0.6875 26.660156 L 6.25 9.472656 L 18.988281 13.617188 L 18.988281 0.675781 L 36.984375 0.675781 L 36.984375 13.617188 L 49.726562 9.472656 L 55.285156 26.660156 L 42.546875 30.804688 L 50.433594 41.625 L 35.875 52.242188 L 27.988281 41.421875 L 20.101562 52.242188 Z M 5.542969 41.625 " clip-rule="nonzero"/></clipPath><clipPath id="546a682dc8"><path d="M 0.519531 0.675781 L 55.285156 0.675781 L 55.285156 52.242188 L 0.519531 52.242188 Z M 0.519531 0.675781 " clip-rule="nonzero"/></clipPath><clipPath id="5a4d1130f5"><path d="M 5.542969 41.625 L 13.429688 30.804688 L 0.6875 26.660156 L 6.25 9.472656 L 18.988281 13.617188 L 18.988281 0.675781 L 36.984375 0.675781 L 36.984375 13.617188 L 49.726562 9.472656 L 55.285156 26.660156 L 42.546875 30.804688 L 50.433594 41.625 L 35.875 52.242188 L 27.988281 41.421875 L 20.101562 52.242188 Z M 5.542969 41.625 " clip-rule="nonzero"/></clipPath><clipPath id="2bd215c77a"><rect x="0" width="56" y="0" height="53"/></clipPath><clipPath id="03e5047e26"><rect x="0" width="322" y="0" height="53"/></clipPath><clipPath id="f69123702a"><path d="M 637.558594 688.265625 L 692.347656 688.265625 L 692.347656 739.832031 L 637.558594 739.832031 Z M 637.558594 688.265625 " clip-rule="nonzero"/></clipPath><clipPath id="a68f288627"><path d="M 642.601562 729.214844 L 650.488281 718.394531 L 637.75 714.25 L 643.308594 697.0625 L 656.050781 701.207031 L 656.050781 688.265625 L 674.046875 688.265625 L 674.046875 701.207031 L 686.785156 697.0625 L 692.347656 714.25 L 679.609375 718.394531 L 687.496094 729.214844 L 672.933594 739.832031 L 665.046875 729.011719 L 657.160156 739.832031 Z M 642.601562 729.214844 " clip-rule="nonzero"/></clipPath><clipPath id="54c1284657"><path d="M 0.679688 0.265625 L 55.347656 0.265625 L 55.347656 51.832031 L 0.679688 51.832031 Z M 0.679688 0.265625 " clip-rule="nonzero"/></clipPath><clipPath id="9bced9f375"><path d="M 5.601562 41.214844 L 13.488281 30.394531 L 0.75 26.25 L 6.308594 9.0625 L 19.050781 13.207031 L 19.050781 0.265625 L 37.046875 0.265625 L 37.046875 13.207031 L 49.785156 9.0625 L 55.347656 26.25 L 42.609375 30.394531 L 50.496094 41.214844 L 35.933594 51.832031 L 28.046875 41.011719 L 20.160156 51.832031 Z M 5.601562 41.214844 " clip-rule="nonzero"/></clipPath><clipPath id="5349922fe0"><rect x="0" width="56" y="0" height="52"/></clipPath><clipPath id="9c40742071"><path d="M 726.234375 688.265625 L 781.023438 688.265625 L 781.023438 739.832031 L 726.234375 739.832031 Z M 726.234375 688.265625 " clip-rule="nonzero"/></clipPath><clipPath id="e2ecfd91cd"><path d="M 731.277344 729.214844 L 739.164062 718.394531 L 726.425781 714.25 L 731.984375 697.0625 L 744.722656 701.207031 L 744.722656 688.265625 L 762.722656 688.265625 L 762.722656 701.207031 L 775.460938 697.0625 L 781.023438 714.25 L 768.28125 718.394531 L 776.167969 729.214844 L 761.609375 739.832031 L 753.722656 729.011719 L 745.835938 739.832031 Z M 731.277344 729.214844 " clip-rule="nonzero"/></clipPath><clipPath id="635691d9f4"><path d="M 0.238281 0.265625 L 55.023438 0.265625 L 55.023438 51.832031 L 0.238281 51.832031 Z M 0.238281 0.265625 " clip-rule="nonzero"/></clipPath><clipPath id="14b7e5198f"><path d="M 5.277344 41.214844 L 13.164062 30.394531 L 0.425781 26.25 L 5.984375 9.0625 L 18.722656 13.207031 L 18.722656 0.265625 L 36.722656 0.265625 L 36.722656 13.207031 L 49.460938 9.0625 L 55.023438 26.25 L 42.28125 30.394531 L 50.167969 41.214844 L 35.609375 51.832031 L 27.722656 41.011719 L 19.835938 51.832031 Z M 5.277344 41.214844 " clip-rule="nonzero"/></clipPath><clipPath id="0b5555565e"><rect x="0" width="56" y="0" height="52"/></clipPath><clipPath id="26fc175da0"><path d="M 549 688.265625 L 603.671875 688.265625 L 603.671875 739.832031 L 549 739.832031 Z M 549 688.265625 " clip-rule="nonzero"/></clipPath><clipPath id="5c184b77aa"><path d="M 553.929688 729.214844 L 561.8125 718.394531 L 549.074219 714.25 L 554.636719 697.0625 L 567.375 701.207031 L 567.375 688.265625 L 585.371094 688.265625 L 585.371094 701.207031 L 598.113281 697.0625 L 603.671875 714.25 L 590.933594 718.394531 L 598.820312 729.214844 L 584.261719 739.832031 L 576.375 729.011719 L 568.488281 739.832031 Z M 553.929688 729.214844 " clip-rule="nonzero"/></clipPath><clipPath id="af05166064"><path d="M 0 0.265625 L 54.671875 0.265625 L 54.671875 51.832031 L 0 51.832031 Z M 0 0.265625 " clip-rule="nonzero"/></clipPath><clipPath id="6021b847dd"><path d="M 4.929688 41.214844 L 12.8125 30.394531 L 0.0742188 26.25 L 5.636719 9.0625 L 18.375 13.207031 L 18.375 0.265625 L 36.371094 0.265625 L 36.371094 13.207031 L 49.113281 9.0625 L 54.671875 26.25 L 41.933594 30.394531 L 49.820312 41.214844 L 35.261719 51.832031 L 27.375 41.011719 L 19.488281 51.832031 Z M 4.929688 41.214844 " clip-rule="nonzero"/></clipPath><clipPath id="7588a14a50"><rect x="0" width="55" y="0" height="52"/></clipPath><clipPath id="b9f15935da"><path d="M 89.222656 0.894531 L 144.007812 0.894531 L 144.007812 52.460938 L 89.222656 52.460938 Z M 89.222656 0.894531 " clip-rule="nonzero"/></clipPath><clipPath id="94477d3df8"><path d="M 94.265625 41.84375 L 102.152344 31.027344 L 89.410156 26.878906 L 94.972656 9.691406 L 107.710938 13.835938 L 107.710938 0.894531 L 125.707031 0.894531 L 125.707031 13.835938 L 138.449219 9.691406 L 144.007812 26.878906 L 131.269531 31.027344 L 139.15625 41.84375 L 124.597656 52.460938 L 116.710938 41.640625 L 108.824219 52.460938 Z M 94.265625 41.84375 " clip-rule="nonzero"/></clipPath><clipPath id="f545d2bceb"><path d="M 0.28125 0.894531 L 55.007812 0.894531 L 55.007812 52.460938 L 0.28125 52.460938 Z M 0.28125 0.894531 " clip-rule="nonzero"/></clipPath><clipPath id="d3f3fa52cb"><path d="M 5.265625 41.84375 L 13.152344 31.027344 L 0.410156 26.878906 L 5.972656 9.691406 L 18.710938 13.835938 L 18.710938 0.894531 L 36.707031 0.894531 L 36.707031 13.835938 L 49.449219 9.691406 L 55.007812 26.878906 L 42.269531 31.027344 L 50.15625 41.84375 L 35.597656 52.460938 L 27.710938 41.640625 L 19.824219 52.460938 Z M 5.265625 41.84375 " clip-rule="nonzero"/></clipPath><clipPath id="7174cc33e9"><rect x="0" width="56" y="0" height="53"/></clipPath><clipPath id="f6c8b6888e"><path d="M 178 0.894531 L 232.683594 0.894531 L 232.683594 52.460938 L 178 52.460938 Z M 178 0.894531 " clip-rule="nonzero"/></clipPath><clipPath id="bad38317cb"><path d="M 182.9375 41.84375 L 190.824219 31.027344 L 178.085938 26.878906 L 183.648438 9.691406 L 196.386719 13.835938 L 196.386719 0.894531 L 214.382812 0.894531 L 214.382812 13.835938 L 227.121094 9.691406 L 232.683594 26.878906 L 219.945312 31.027344 L 227.832031 41.84375 L 213.269531 52.460938 L 205.382812 41.640625 L 197.5 52.460938 Z M 182.9375 41.84375 " clip-rule="nonzero"/></clipPath><clipPath id="24710d1c03"><path d="M 0.078125 0.894531 L 54.683594 0.894531 L 54.683594 52.460938 L 0.078125 52.460938 Z M 0.078125 0.894531 " clip-rule="nonzero"/></clipPath><clipPath id="9917549e49"><path d="M 4.9375 41.84375 L 12.824219 31.027344 L 0.0859375 26.878906 L 5.648438 9.691406 L 18.386719 13.835938 L 18.386719 0.894531 L 36.382812 0.894531 L 36.382812 13.835938 L 49.121094 9.691406 L 54.683594 26.878906 L 41.945312 31.027344 L 49.832031 41.84375 L 35.269531 52.460938 L 27.382812 41.640625 L 19.5 52.460938 Z M 4.9375 41.84375 " clip-rule="nonzero"/></clipPath><clipPath id="ab9e0bae04"><rect x="0" width="55" y="0" height="53"/></clipPath><clipPath id="273f01b2f3"><path d="M 266.570312 0.894531 L 321.359375 0.894531 L 321.359375 52.460938 L 266.570312 52.460938 Z M 266.570312 0.894531 " clip-rule="nonzero"/></clipPath><clipPath id="c1609bca0e"><path d="M 271.613281 41.84375 L 279.5 31.027344 L 266.761719 26.878906 L 272.320312 9.691406 L 285.0625 13.835938 L 285.0625 0.894531 L 303.058594 0.894531 L 303.058594 13.835938 L 315.796875 9.691406 L 321.359375 26.878906 L 308.617188 31.027344 L 316.503906 41.84375 L 301.945312 52.460938 L 294.058594 41.640625 L 286.171875 52.460938 Z M 271.613281 41.84375 " clip-rule="nonzero"/></clipPath><clipPath id="b08cafa647"><path d="M 0.640625 0.894531 L 55.359375 0.894531 L 55.359375 52.460938 L 0.640625 52.460938 Z M 0.640625 0.894531 " clip-rule="nonzero"/></clipPath><clipPath id="7b103c43a3"><path d="M 5.613281 41.84375 L 13.5 31.027344 L 0.761719 26.878906 L 6.320312 9.691406 L 19.0625 13.835938 L 19.0625 0.894531 L 37.058594 0.894531 L 37.058594 13.835938 L 49.796875 9.691406 L 55.359375 26.878906 L 42.617188 31.027344 L 50.503906 41.84375 L 35.945312 52.460938 L 28.058594 41.640625 L 20.171875 52.460938 Z M 5.613281 41.84375 " clip-rule="nonzero"/></clipPath><clipPath id="cae1b3ce19"><rect x="0" width="56" y="0" height="53"/></clipPath><clipPath id="d275fb0ab8"><path d="M 0.546875 0.894531 L 55.335938 0.894531 L 55.335938 52.460938 L 0.546875 52.460938 Z M 0.546875 0.894531 " clip-rule="nonzero"/></clipPath><clipPath id="0deaea4012"><path d="M 5.589844 41.84375 L 13.476562 31.027344 L 0.734375 26.878906 L 6.296875 9.691406 L 19.035156 13.835938 L 19.035156 0.894531 L 37.035156 0.894531 L 37.035156 13.835938 L 49.773438 9.691406 L 55.335938 26.878906 L 42.59375 31.027344 L 50.480469 41.84375 L 35.921875 52.460938 L 28.035156 41.640625 L 20.148438 52.460938 Z M 5.589844 41.84375 " clip-rule="nonzero"/></clipPath><clipPath id="62609fdb7e"><path d="M 0.71875 0.894531 L 55.335938 0.894531 L 55.335938 52.460938 L 0.71875 52.460938 Z M 0.71875 0.894531 " clip-rule="nonzero"/></clipPath><clipPath id="74d79a220e"><path d="M 5.589844 41.84375 L 13.476562 31.027344 L 0.734375 26.878906 L 6.296875 9.691406 L 19.035156 13.835938 L 19.035156 0.894531 L 37.035156 0.894531 L 37.035156 13.835938 L 49.773438 9.691406 L 55.335938 26.878906 L 42.59375 31.027344 L 50.480469 41.84375 L 35.921875 52.460938 L 28.035156 41.640625 L 20.148438 52.460938 Z M 5.589844 41.84375 " clip-rule="nonzero"/></clipPath><clipPath id="1925694f85"><rect x="0" width="56" y="0" height="53"/></clipPath><clipPath id="673feaa4ac"><rect x="0" width="322" y="0" height="53"/></clipPath><clipPath id="817ee7bed5"><path d="M 89.222656 0.753906 L 144.007812 0.753906 L 144.007812 52.320312 L 89.222656 52.320312 Z M 89.222656 0.753906 " clip-rule="nonzero"/></clipPath><clipPath id="71ef10de77"><path d="M 94.265625 41.703125 L 102.152344 30.882812 L 89.410156 26.738281 L 94.972656 9.550781 L 107.710938 13.695312 L 107.710938 0.753906 L 125.707031 0.753906 L 125.707031 13.695312 L 138.449219 9.550781 L 144.007812 26.738281 L 131.269531 30.882812 L 139.15625 41.703125 L 124.597656 52.320312 L 116.710938 41.5 L 108.824219 52.320312 Z M 94.265625 41.703125 " clip-rule="nonzero"/></clipPath><clipPath id="02fa166f89"><path d="M 0.28125 0.753906 L 55.007812 0.753906 L 55.007812 52.320312 L 0.28125 52.320312 Z M 0.28125 0.753906 " clip-rule="nonzero"/></clipPath><clipPath id="9354fef1f7"><path d="M 5.265625 41.703125 L 13.152344 30.882812 L 0.410156 26.738281 L 5.972656 9.550781 L 18.710938 13.695312 L 18.710938 0.753906 L 36.707031 0.753906 L 36.707031 13.695312 L 49.449219 9.550781 L 55.007812 26.738281 L 42.269531 30.882812 L 50.15625 41.703125 L 35.597656 52.320312 L 27.710938 41.5 L 19.824219 52.320312 Z M 5.265625 41.703125 " clip-rule="nonzero"/></clipPath><clipPath id="8a72cd947e"><rect x="0" width="56" y="0" height="53"/></clipPath><clipPath id="78ce1e7f97"><path d="M 178 0.753906 L 232.683594 0.753906 L 232.683594 52.320312 L 178 52.320312 Z M 178 0.753906 " clip-rule="nonzero"/></clipPath><clipPath id="2804e43c1f"><path d="M 182.9375 41.703125 L 190.824219 30.882812 L 178.085938 26.738281 L 183.648438 9.550781 L 196.386719 13.695312 L 196.386719 0.753906 L 214.382812 0.753906 L 214.382812 13.695312 L 227.121094 9.550781 L 232.683594 26.738281 L 219.945312 30.882812 L 227.832031 41.703125 L 213.269531 52.320312 L 205.382812 41.5 L 197.5 52.320312 Z M 182.9375 41.703125 " clip-rule="nonzero"/></clipPath><clipPath id="9a202d3097"><path d="M 0.078125 0.753906 L 54.683594 0.753906 L 54.683594 52.320312 L 0.078125 52.320312 Z M 0.078125 0.753906 " clip-rule="nonzero"/></clipPath><clipPath id="07070dd7ad"><path d="M 4.9375 41.703125 L 12.824219 30.882812 L 0.0859375 26.738281 L 5.648438 9.550781 L 18.386719 13.695312 L 18.386719 0.753906 L 36.382812 0.753906 L 36.382812 13.695312 L 49.121094 9.550781 L 54.683594 26.738281 L 41.945312 30.882812 L 49.832031 41.703125 L 35.269531 52.320312 L 27.382812 41.5 L 19.5 52.320312 Z M 4.9375 41.703125 " clip-rule="nonzero"/></clipPath><clipPath id="c98b12b93e"><rect x="0" width="55" y="0" height="53"/></clipPath><clipPath id="b3c422000f"><path d="M 266.570312 0.753906 L 321.359375 0.753906 L 321.359375 52.320312 L 266.570312 52.320312 Z M 266.570312 0.753906 " clip-rule="nonzero"/></clipPath><clipPath id="b6b166e909"><path d="M 271.613281 41.703125 L 279.5 30.882812 L 266.761719 26.738281 L 272.320312 9.550781 L 285.0625 13.695312 L 285.0625 0.753906 L 303.058594 0.753906 L 303.058594 13.695312 L 315.796875 9.550781 L 321.359375 26.738281 L 308.617188 30.882812 L 316.503906 41.703125 L 301.945312 52.320312 L 294.058594 41.5 L 286.171875 52.320312 Z M 271.613281 41.703125 " clip-rule="nonzero"/></clipPath><clipPath id="9221b2f514"><path d="M 0.640625 0.753906 L 55.359375 0.753906 L 55.359375 52.320312 L 0.640625 52.320312 Z M 0.640625 0.753906 " clip-rule="nonzero"/></clipPath><clipPath id="e83240791b"><path d="M 5.613281 41.703125 L 13.5 30.882812 L 0.761719 26.738281 L 6.320312 9.550781 L 19.0625 13.695312 L 19.0625 0.753906 L 37.058594 0.753906 L 37.058594 13.695312 L 49.796875 9.550781 L 55.359375 26.738281 L 42.617188 30.882812 L 50.503906 41.703125 L 35.945312 52.320312 L 28.058594 41.5 L 20.171875 52.320312 Z M 5.613281 41.703125 " clip-rule="nonzero"/></clipPath><clipPath id="2e88d0eceb"><rect x="0" width="56" y="0" height="53"/></clipPath><clipPath id="fd1f494176"><path d="M 0.546875 0.753906 L 55.335938 0.753906 L 55.335938 52.320312 L 0.546875 52.320312 Z M 0.546875 0.753906 " clip-rule="nonzero"/></clipPath><clipPath id="bb07ffe9ef"><path d="M 5.589844 41.703125 L 13.476562 30.882812 L 0.734375 26.738281 L 6.296875 9.550781 L 19.035156 13.695312 L 19.035156 0.753906 L 37.035156 0.753906 L 37.035156 13.695312 L 49.773438 9.550781 L 55.335938 26.738281 L 42.59375 30.882812 L 50.480469 41.703125 L 35.921875 52.320312 L 28.035156 41.5 L 20.148438 52.320312 Z M 5.589844 41.703125 " clip-rule="nonzero"/></clipPath><clipPath id="5f76f7b2e3"><path d="M 0.71875 0.753906 L 55.335938 0.753906 L 55.335938 52.320312 L 0.71875 52.320312 Z M 0.71875 0.753906 " clip-rule="nonzero"/></clipPath><clipPath id="fd216555fc"><path d="M 5.589844 41.703125 L 13.476562 30.882812 L 0.734375 26.738281 L 6.296875 9.550781 L 19.035156 13.695312 L 19.035156 0.753906 L 37.035156 0.753906 L 37.035156 13.695312 L 49.773438 9.550781 L 55.335938 26.738281 L 42.59375 30.882812 L 50.480469 41.703125 L 35.921875 52.320312 L 28.035156 41.5 L 20.148438 52.320312 Z M 5.589844 41.703125 " clip-rule="nonzero"/></clipPath><clipPath id="bc0eb468ac"><rect x="0" width="56" y="0" height="53"/></clipPath><clipPath id="37969347e6"><rect x="0" width="322" y="0" height="53"/></clipPath><clipPath id="2b574966a5"><path d="M 636.511719 830.824219 L 691.300781 830.824219 L 691.300781 882.386719 L 636.511719 882.386719 Z M 636.511719 830.824219 " clip-rule="nonzero"/></clipPath><clipPath id="dd4e5fb718"><path d="M 641.554688 871.773438 L 649.441406 860.953125 L 636.703125 856.808594 L 642.261719 839.621094 L 655.003906 843.765625 L 655.003906 830.824219 L 673 830.824219 L 673 843.765625 L 685.738281 839.621094 L 691.300781 856.808594 L 678.558594 860.953125 L 686.445312 871.773438 L 671.886719 882.386719 L 664 871.570312 L 656.113281 882.386719 Z M 641.554688 871.773438 " clip-rule="nonzero"/></clipPath><clipPath id="15a95f19ba"><path d="M 0.511719 0.824219 L 55.300781 0.824219 L 55.300781 52.386719 L 0.511719 52.386719 Z M 0.511719 0.824219 " clip-rule="nonzero"/></clipPath><clipPath id="4ada8c2e5c"><path d="M 5.554688 41.773438 L 13.441406 30.953125 L 0.703125 26.808594 L 6.261719 9.621094 L 19.003906 13.765625 L 19.003906 0.824219 L 37 0.824219 L 37 13.765625 L 49.738281 9.621094 L 55.300781 26.808594 L 42.558594 30.953125 L 50.445312 41.773438 L 35.886719 52.386719 L 28 41.570312 L 20.113281 52.386719 Z M 5.554688 41.773438 " clip-rule="nonzero"/></clipPath><clipPath id="1659259a49"><rect x="0" width="56" y="0" height="53"/></clipPath><clipPath id="d8b894698d"><path d="M 725.1875 830.824219 L 779.972656 830.824219 L 779.972656 882.386719 L 725.1875 882.386719 Z M 725.1875 830.824219 " clip-rule="nonzero"/></clipPath><clipPath id="76bcfa26df"><path d="M 730.230469 871.773438 L 738.117188 860.953125 L 725.375 856.808594 L 730.9375 839.621094 L 743.675781 843.765625 L 743.675781 830.824219 L 761.675781 830.824219 L 761.675781 843.765625 L 774.414062 839.621094 L 779.972656 856.808594 L 767.234375 860.953125 L 775.121094 871.773438 L 760.5625 882.386719 L 752.675781 871.570312 L 744.789062 882.386719 Z M 730.230469 871.773438 " clip-rule="nonzero"/></clipPath><clipPath id="943fb235a8"><path d="M 0.28125 0.824219 L 54.972656 0.824219 L 54.972656 52.386719 L 0.28125 52.386719 Z M 0.28125 0.824219 " clip-rule="nonzero"/></clipPath><clipPath id="b7874f8dd3"><path d="M 5.230469 41.773438 L 13.117188 30.953125 L 0.375 26.808594 L 5.9375 9.621094 L 18.675781 13.765625 L 18.675781 0.824219 L 36.675781 0.824219 L 36.675781 13.765625 L 49.414062 9.621094 L 54.972656 26.808594 L 42.234375 30.953125 L 50.121094 41.773438 L 35.5625 52.386719 L 27.675781 41.570312 L 19.789062 52.386719 Z M 5.230469 41.773438 " clip-rule="nonzero"/></clipPath><clipPath id="bb55594b75"><rect x="0" width="55" y="0" height="53"/></clipPath><clipPath id="b6640ea995"><path d="M 548 830.824219 L 602.625 830.824219 L 602.625 882.386719 L 548 882.386719 Z M 548 830.824219 " clip-rule="nonzero"/></clipPath><clipPath id="f469418689"><path d="M 552.878906 871.773438 L 560.765625 860.953125 L 548.027344 856.808594 L 553.589844 839.621094 L 566.328125 843.765625 L 566.328125 830.824219 L 584.324219 830.824219 L 584.324219 843.765625 L 597.0625 839.621094 L 602.625 856.808594 L 589.886719 860.953125 L 597.773438 871.773438 L 583.210938 882.386719 L 575.324219 871.570312 L 567.441406 882.386719 Z M 552.878906 871.773438 " clip-rule="nonzero"/></clipPath><clipPath id="7c85c45851"><path d="M 0 0.824219 L 54.625 0.824219 L 54.625 52.386719 L 0 52.386719 Z M 0 0.824219 " clip-rule="nonzero"/></clipPath><clipPath id="bcb0eb249f"><path d="M 4.878906 41.773438 L 12.765625 30.953125 L 0.0273438 26.808594 L 5.589844 9.621094 L 18.328125 13.765625 L 18.328125 0.824219 L 36.324219 0.824219 L 36.324219 13.765625 L 49.0625 9.621094 L 54.625 26.808594 L 41.886719 30.953125 L 49.773438 41.773438 L 35.210938 52.386719 L 27.324219 41.570312 L 19.441406 52.386719 Z M 4.878906 41.773438 " clip-rule="nonzero"/></clipPath><clipPath id="23072f341f"><rect x="0" width="55" y="0" height="53"/></clipPath><clipPath id="3bf99bb2ba"><path d="M 1017.90625 1364.84375 L 1098.402344 1364.84375 L 1098.402344 1383.914062 L 1017.90625 1383.914062 Z M 1017.90625 1364.84375 " clip-rule="nonzero"/></clipPath><clipPath id="91a61176b8"><path d="M 0.90625 0.84375 L 81.402344 0.84375 L 81.402344 19.914062 L 0.90625 19.914062 Z M 0.90625 0.84375 " clip-rule="nonzero"/></clipPath><clipPath id="218a9f6b24"><rect x="0" width="82" y="0" height="20"/></clipPath><clipPath id="050c5e4c57"><path d="M 1017.90625 1236.84375 L 1098.402344 1236.84375 L 1098.402344 1255.914062 L 1017.90625 1255.914062 Z M 1017.90625 1236.84375 " clip-rule="nonzero"/></clipPath><clipPath id="7052983398"><path d="M 0.90625 0.84375 L 81.402344 0.84375 L 81.402344 19.914062 L 0.90625 19.914062 Z M 0.90625 0.84375 " clip-rule="nonzero"/></clipPath><clipPath id="562ebd6eab"><rect x="0" width="82" y="0" height="20"/></clipPath><clipPath id="733636e071"><path d="M 1017.90625 1322.175781 L 1098.402344 1322.175781 L 1098.402344 1341.25 L 1017.90625 1341.25 Z M 1017.90625 1322.175781 " clip-rule="nonzero"/></clipPath><clipPath id="d609ddbbdc"><path d="M 0.90625 0.175781 L 81.402344 0.175781 L 81.402344 19.25 L 0.90625 19.25 Z M 0.90625 0.175781 " clip-rule="nonzero"/></clipPath><clipPath id="f24ce52f73"><rect x="0" width="82" y="0" height="20"/></clipPath><clipPath id="3658ad390b"><path d="M 1017.90625 1194.175781 L 1098.402344 1194.175781 L 1098.402344 1213.25 L 1017.90625 1213.25 Z M 1017.90625 1194.175781 " clip-rule="nonzero"/></clipPath><clipPath id="cdb0a4f439"><path d="M 0.90625 0.175781 L 81.402344 0.175781 L 81.402344 19.25 L 0.90625 19.25 Z M 0.90625 0.175781 " clip-rule="nonzero"/></clipPath><clipPath id="ad58e3a79e"><rect x="0" width="82" y="0" height="20"/></clipPath><clipPath id="1dab1ddbfc"><path d="M 1017.90625 1279.507812 L 1098.402344 1279.507812 L 1098.402344 1298.582031 L 1017.90625 1298.582031 Z M 1017.90625 1279.507812 " clip-rule="nonzero"/></clipPath><clipPath id="723d297f93"><path d="M 0.90625 0.507812 L 81.402344 0.507812 L 81.402344 19.582031 L 0.90625 19.582031 Z M 0.90625 0.507812 " clip-rule="nonzero"/></clipPath><clipPath id="d645cd51b3"><rect x="0" width="82" y="0" height="20"/></clipPath><clipPath id="ba714e3b67"><path d="M 1017.90625 1151.511719 L 1098.402344 1151.511719 L 1098.402344 1170.582031 L 1017.90625 1170.582031 Z M 1017.90625 1151.511719 " clip-rule="nonzero"/></clipPath><clipPath id="d6edf46646"><path d="M 0.90625 0.511719 L 81.402344 0.511719 L 81.402344 19.582031 L 0.90625 19.582031 Z M 0.90625 0.511719 " clip-rule="nonzero"/></clipPath><clipPath id="4bee41ff2e"><rect x="0" width="82" y="0" height="20"/></clipPath><clipPath id="fd8c5d5b79"><rect x="0" width="201" y="0" height="212"/></clipPath><clipPath id="617ea85596"><rect x="0" width="427" y="0" height="220"/></clipPath><clipPath id="de135ab48b"><path d="M 1017.90625 1108.84375 L 1098.402344 1108.84375 L 1098.402344 1127.917969 L 1017.90625 1127.917969 Z M 1017.90625 1108.84375 " clip-rule="nonzero"/></clipPath><clipPath id="03f3746e05"><path d="M 0.90625 0.84375 L 81.402344 0.84375 L 81.402344 19.917969 L 0.90625 19.917969 Z M 0.90625 0.84375 " clip-rule="nonzero"/></clipPath><clipPath id="33d4349f66"><rect x="0" width="82" y="0" height="20"/></clipPath><clipPath id="296ef7c965"><path d="M 1017.90625 1066.175781 L 1098.402344 1066.175781 L 1098.402344 1085.25 L 1017.90625 1085.25 Z M 1017.90625 1066.175781 " clip-rule="nonzero"/></clipPath><clipPath id="1274139531"><path d="M 0.90625 0.175781 L 81.402344 0.175781 L 81.402344 19.25 L 0.90625 19.25 Z M 0.90625 0.175781 " clip-rule="nonzero"/></clipPath><clipPath id="d757f0d9ad"><rect x="0" width="82" y="0" height="20"/></clipPath><clipPath id="98c690e743"><path d="M 1017.90625 1023.511719 L 1098.402344 1023.511719 L 1098.402344 1042.582031 L 1017.90625 1042.582031 Z M 1017.90625 1023.511719 " clip-rule="nonzero"/></clipPath><clipPath id="a6022fc950"><path d="M 0.90625 0.511719 L 81.402344 0.511719 L 81.402344 19.582031 L 0.90625 19.582031 Z M 0.90625 0.511719 " clip-rule="nonzero"/></clipPath><clipPath id="b524b70e39"><rect x="0" width="82" y="0" height="20"/></clipPath><clipPath id="7f72361ab4"><path d="M 1017.90625 1237.1875 L 1098.402344 1237.1875 L 1098.402344 1256.257812 L 1017.90625 1256.257812 Z M 1017.90625 1237.1875 " clip-rule="nonzero"/></clipPath><clipPath id="53fd0da5d6"><path d="M 0.90625 0.1875 L 81.402344 0.1875 L 81.402344 19.257812 L 0.90625 19.257812 Z M 0.90625 0.1875 " clip-rule="nonzero"/></clipPath><clipPath id="59ee7550f9"><rect x="0" width="82" y="0" height="20"/></clipPath><clipPath id="4e646189a7"><path d="M 1017.90625 1194.519531 L 1098.402344 1194.519531 L 1098.402344 1213.59375 L 1017.90625 1213.59375 Z M 1017.90625 1194.519531 " clip-rule="nonzero"/></clipPath><clipPath id="3e719293dd"><path d="M 0.90625 0.519531 L 81.402344 0.519531 L 81.402344 19.59375 L 0.90625 19.59375 Z M 0.90625 0.519531 " clip-rule="nonzero"/></clipPath><clipPath id="22f2629b0c"><rect x="0" width="82" y="0" height="20"/></clipPath><clipPath id="74eb081b44"><path d="M 1017.90625 1151.855469 L 1098.402344 1151.855469 L 1098.402344 1170.925781 L 1017.90625 1170.925781 Z M 1017.90625 1151.855469 " clip-rule="nonzero"/></clipPath><clipPath id="03e6005b19"><path d="M 0.90625 0.855469 L 81.402344 0.855469 L 81.402344 19.925781 L 0.90625 19.925781 Z M 0.90625 0.855469 " clip-rule="nonzero"/></clipPath><clipPath id="6033334c4b"><rect x="0" width="82" y="0" height="20"/></clipPath><clipPath id="a9c2663773"><path d="M 1017.90625 1364.84375 L 1098.402344 1364.84375 L 1098.402344 1383.914062 L 1017.90625 1383.914062 Z M 1017.90625 1364.84375 " clip-rule="nonzero"/></clipPath><clipPath id="a5a6e0383b"><path d="M 0.90625 0.84375 L 81.402344 0.84375 L 81.402344 19.914062 L 0.90625 19.914062 Z M 0.90625 0.84375 " clip-rule="nonzero"/></clipPath><clipPath id="5a8b67b4f8"><rect x="0" width="82" y="0" height="20"/></clipPath><clipPath id="a903f2ff77"><path d="M 1017.90625 1322.175781 L 1098.402344 1322.175781 L 1098.402344 1341.25 L 1017.90625 1341.25 Z M 1017.90625 1322.175781 " clip-rule="nonzero"/></clipPath><clipPath id="283b33d3b6"><path d="M 0.90625 0.175781 L 81.402344 0.175781 L 81.402344 19.25 L 0.90625 19.25 Z M 0.90625 0.175781 " clip-rule="nonzero"/></clipPath><clipPath id="ad82428b1c"><rect x="0" width="82" y="0" height="20"/></clipPath><clipPath id="8ed1246f1f"><path d="M 1017.90625 1279.507812 L 1098.402344 1279.507812 L 1098.402344 1298.582031 L 1017.90625 1298.582031 Z M 1017.90625 1279.507812 " clip-rule="nonzero"/></clipPath><clipPath id="eb198d59ce"><path d="M 0.90625 0.507812 L 81.402344 0.507812 L 81.402344 19.582031 L 0.90625 19.582031 Z M 0.90625 0.507812 " clip-rule="nonzero"/></clipPath><clipPath id="43ff4aa266"><rect x="0" width="82" y="0" height="20"/></clipPath></defs><rect x="-150" width="1800" fill="#ffffff" y="-149.999993" height="1799.99992" fill-opacity="1"/><rect x="-150" width="1800" fill="#efefef" y="-149.999993" height="1799.99992" fill-opacity="1"/><g clip-path="url(#776b199dab)"><g clip-path="url(#6a7b1d8137)"><g transform="matrix(1, 0, 0, 1, 37, 620)"><g clip-path="url(#105e9d922b)"><g clip-path="url(#363d5320ad)"><g clip-path="url(#abc9f03b2b)"><path fill="#1649ff" d="M 0.5 0.871094 L 388.316406 0.871094 L 388.316406 282.921875 L 0.5 282.921875 Z M 0.5 0.871094 " fill-opacity="1" fill-rule="nonzero"/></g></g></g></g></g></g><g clip-path="url(#1a08a38c6d)"><path fill="#efefef" d="M 112.566406 696.125 L 117.265625 696.125 L 117.265625 677.332031 L 112.566406 677.332031 C 97 677.332031 84.378906 689.953125 84.378906 705.519531 L 84.378906 738.40625 C 84.378906 741.363281 82.988281 744.144531 80.621094 745.921875 L 69.347656 754.378906 C 67.089844 756.070312 65.714844 758.6875 65.597656 761.503906 C 65.480469 764.320312 66.632812 767.042969 68.742188 768.917969 L 81.226562 780.011719 C 83.230469 781.792969 84.378906 784.351562 84.378906 787.035156 L 84.378906 818.269531 C 84.378906 833.835938 97 846.457031 112.566406 846.457031 L 117.265625 846.457031 L 117.265625 827.664062 L 112.566406 827.664062 C 107.378906 827.664062 103.171875 823.457031 103.171875 818.269531 L 103.171875 787.035156 C 103.171875 778.980469 99.726562 771.3125 93.707031 765.964844 L 89.820312 762.511719 L 91.898438 760.953125 C 98.996094 755.628906 103.171875 747.277344 103.171875 738.40625 L 103.171875 705.519531 C 103.171875 700.328125 107.378906 696.125 112.566406 696.125 Z M 112.566406 696.125 " fill-opacity="1" fill-rule="evenodd"/></g><g clip-path="url(#19a66b1e82)"><path fill="#efefef" d="M 346.640625 696.125 L 341.941406 696.125 L 341.941406 677.332031 L 346.640625 677.332031 C 362.207031 677.332031 374.828125 689.953125 374.828125 705.519531 L 374.828125 738.40625 C 374.828125 741.363281 376.21875 744.144531 378.585938 745.921875 L 389.859375 754.378906 C 392.117188 756.070312 393.492188 758.6875 393.609375 761.503906 C 393.726562 764.320312 392.574219 767.042969 390.464844 768.917969 L 377.980469 780.011719 C 375.976562 781.792969 374.828125 784.351562 374.828125 787.035156 L 374.828125 818.269531 C 374.828125 833.835938 362.207031 846.457031 346.640625 846.457031 L 341.941406 846.457031 L 341.941406 827.664062 L 346.640625 827.664062 C 351.828125 827.664062 356.035156 823.457031 356.035156 818.269531 L 356.035156 787.035156 C 356.035156 778.980469 359.480469 771.3125 365.5 765.964844 L 369.386719 762.511719 L 367.308594 760.953125 C 360.210938 755.628906 356.035156 747.277344 356.035156 738.40625 L 356.035156 705.519531 C 356.035156 700.328125 351.828125 696.125 346.640625 696.125 Z M 346.640625 696.125 " fill-opacity="1" fill-rule="evenodd"/></g><g fill="#efefef" fill-opacity="1"><g transform="translate(123.158716, 823.771325)"><g><path d="M 109.203125 0 L 86.015625 0 L 86.015625 -54.9375 L 34.4375 -54.9375 L 34.4375 0 L 11.25 0 L 11.25 -112.734375 C 11.25 -112.835938 11.050781 -113.671875 10.65625 -115.234375 C 10.269531 -116.804688 9.878906 -118.429688 9.484375 -120.109375 C 9.097656 -121.796875 8.90625 -122.75 8.90625 -122.96875 L 34.4375 -122.96875 L 34.4375 -71.5625 L 86.015625 -71.5625 L 86.015625 -122.96875 L 109.203125 -122.96875 Z M 109.203125 0 "/></g></g></g><g fill="#efefef" fill-opacity="1"><g transform="translate(253.02269, 823.771325)"><g><path d="M 83.328125 -36.125 C 83.328125 -24.25 79.15625 -14.921875 70.8125 -8.140625 C 62.46875 -1.367188 52.25 2.015625 40.15625 2.015625 C 24.8125 2.015625 11.648438 -1.234375 0.671875 -7.734375 L 8.5625 -26.375 C 17.300781 -18.195312 27.101562 -14.109375 37.96875 -14.109375 C 43.675781 -14.109375 48.570312 -15.675781 52.65625 -18.8125 C 56.75 -21.945312 58.796875 -26.316406 58.796875 -31.921875 C 58.796875 -35.953125 57.453125 -39.535156 54.765625 -42.671875 C 52.078125 -45.804688 48.742188 -48.269531 44.765625 -50.0625 C 40.796875 -51.851562 36.457031 -53.953125 31.75 -56.359375 C 27.050781 -58.765625 22.710938 -61.203125 18.734375 -63.671875 C 14.753906 -66.140625 11.421875 -69.640625 8.734375 -74.171875 C 6.046875 -78.703125 4.703125 -83.9375 4.703125 -89.875 C 4.703125 -101.414062 8.707031 -110.148438 16.71875 -116.078125 C 24.726562 -122.015625 35.394531 -124.984375 48.71875 -124.984375 C 53.757812 -124.984375 59.582031 -123.972656 66.1875 -121.953125 C 72.800781 -119.941406 77.84375 -117.59375 81.3125 -114.90625 L 69.71875 -100.46875 C 63.445312 -106.0625 55.71875 -108.859375 46.53125 -108.859375 C 41.832031 -108.859375 37.773438 -107.625 34.359375 -105.15625 C 30.941406 -102.695312 29.234375 -99.226562 29.234375 -94.75 C 29.234375 -90.832031 30.578125 -87.390625 33.265625 -84.421875 C 35.953125 -81.453125 39.28125 -79.070312 43.25 -77.28125 C 47.226562 -75.488281 51.570312 -73.359375 56.28125 -70.890625 C 60.988281 -68.429688 65.328125 -65.941406 69.296875 -63.421875 C 73.273438 -60.898438 76.609375 -57.285156 79.296875 -52.578125 C 81.984375 -47.878906 83.328125 -42.394531 83.328125 -36.125 Z M 83.328125 -36.125 "/></g></g></g><g clip-path="url(#4ddb9d6b2d)"><g transform="matrix(1, 0, 0, 1, 837, 612)"><g clip-path="url(#4e017fe151)"><g clip-path="url(#0b97ad614b)"><path fill="#ffffff" d="M 0.53125 0.832031 L 612.488281 0.832031 L 612.488281 350.523438 L 0.53125 350.523438 Z M 0.53125 0.832031 " fill-opacity="1" fill-rule="nonzero"/></g></g></g></g><g clip-path="url(#e3304bca0d)"><g transform="matrix(1, 0, 0, 1, 837, 890)"><g clip-path="url(#54f9a1fc17)"><g clip-path="url(#4cba767d8a)"><path fill="#ee0000" d="M 0.53125 0.808594 L 611.832031 0.808594 L 611.832031 70.421875 L 0.53125 70.421875 Z M 0.53125 0.808594 " fill-opacity="1" fill-rule="nonzero"/></g></g></g></g><g clip-path="url(#c4756a208b)"><g transform="matrix(1, 0, 0, 1, 487, 611)"><g clip-path="url(#998d56baaa)"><g clip-path="url(#bea30ae91a)"><path fill="#1649ff" d="M 0.929688 0.578125 L 350.53125 0.578125 L 350.53125 350.179688 L 0.929688 350.179688 Z M 0.929688 0.578125 " fill-opacity="1" fill-rule="nonzero"/></g></g></g></g><g clip-path="url(#1db40e8a61)"><g transform="matrix(1, 0, 0, 1, 837, 611)"><g clip-path="url(#4c47a0023a)"><g clip-path="url(#beec6c7325)"><path fill="#ee0000" d="M 0.53125 0.578125 L 611.765625 0.578125 L 611.765625 70.339844 L 0.53125 70.339844 Z M 0.53125 0.578125 " fill-opacity="1" fill-rule="nonzero"/></g></g></g></g><g clip-path="url(#9f30351e7f)"><g transform="matrix(1, 0, 0, 1, 837, 749)"><g clip-path="url(#cde0d7e29e)"><g clip-path="url(#73de074b99)"><path fill="#ff6100" d="M 0.53125 0.519531 L 611.683594 0.519531 L 611.683594 76.839844 L 0.53125 76.839844 Z M 0.53125 0.519531 " fill-opacity="1" fill-rule="nonzero"/></g></g></g></g><g transform="matrix(1, 0, 0, 1, 503, 620)"><g clip-path="url(#03e5047e26)"><g clip-path="url(#e339a2817a)"><g clip-path="url(#3057d26c50)"><g transform="matrix(1, 0, 0, 1, 89, 0.000000000000113687)"><g clip-path="url(#2576409586)"><g clip-path="url(#ae27cd00a5)"><g clip-path="url(#b4cb6e5908)"><path fill="#ffffff" d="M 54.960938 52.242188 L 0.375 52.242188 L 0.375 0.675781 L 54.960938 0.675781 Z M 54.960938 52.242188 " fill-opacity="1" fill-rule="nonzero"/></g></g></g></g></g></g><g clip-path="url(#78d792c19d)"><g clip-path="url(#d6a79f947a)"><g transform="matrix(1, 0, 0, 1, 178, 0.000000000000113687)"><g clip-path="url(#cfbfe45550)"><g clip-path="url(#7f5d0efc42)"><g clip-path="url(#761e47fca4)"><path fill="#ffffff" d="M 54.636719 52.242188 L 0.0507812 52.242188 L 0.0507812 0.675781 L 54.636719 0.675781 Z M 54.636719 52.242188 " fill-opacity="1" fill-rule="nonzero"/></g></g></g></g></g></g><g clip-path="url(#077a6981dc)"><g clip-path="url(#ef98436599)"><g transform="matrix(1, 0, 0, 1, 266, 0.000000000000113687)"><g clip-path="url(#4535d1353b)"><g clip-path="url(#d5b7bc50eb)"><g clip-path="url(#eecb0ccd62)"><path fill="#ffffff" d="M 55.3125 52.242188 L 0.722656 52.242188 L 0.722656 0.675781 L 55.3125 0.675781 Z M 55.3125 52.242188 " fill-opacity="1" fill-rule="nonzero"/></g></g></g></g></g></g><g clip-path="url(#17221a968b)"><g clip-path="url(#5765905744)"><g transform="matrix(1, 0, 0, 1, 0.000000000000056843, 0.000000000000113687)"><g clip-path="url(#2bd215c77a)"><g clip-path="url(#546a682dc8)"><g clip-path="url(#5a4d1130f5)"><path fill="#ffffff" d="M 55.285156 52.242188 L 0.699219 52.242188 L 0.699219 0.675781 L 55.285156 0.675781 Z M 55.285156 52.242188 " fill-opacity="1" fill-rule="nonzero"/></g></g></g></g></g></g></g></g><g clip-path="url(#f69123702a)"><g clip-path="url(#a68f288627)"><g transform="matrix(1, 0, 0, 1, 637, 688)"><g clip-path="url(#5349922fe0)"><g clip-path="url(#54c1284657)"><g clip-path="url(#9bced9f375)"><path fill="#ffffff" d="M 55.347656 51.832031 L 0.761719 51.832031 L 0.761719 0.265625 L 55.347656 0.265625 Z M 55.347656 51.832031 " fill-opacity="1" fill-rule="nonzero"/></g></g></g></g></g></g><g clip-path="url(#9c40742071)"><g clip-path="url(#e2ecfd91cd)"><g transform="matrix(1, 0, 0, 1, 726, 688)"><g clip-path="url(#0b5555565e)"><g clip-path="url(#635691d9f4)"><g clip-path="url(#14b7e5198f)"><path fill="#ffffff" d="M 55.023438 51.832031 L 0.4375 51.832031 L 0.4375 0.265625 L 55.023438 0.265625 Z M 55.023438 51.832031 " fill-opacity="1" fill-rule="nonzero"/></g></g></g></g></g></g><g clip-path="url(#26fc175da0)"><g clip-path="url(#5c184b77aa)"><g transform="matrix(1, 0, 0, 1, 549, 688)"><g clip-path="url(#7588a14a50)"><g clip-path="url(#af05166064)"><g clip-path="url(#6021b847dd)"><path fill="#ffffff" d="M 54.671875 51.832031 L 0.0859375 51.832031 L 0.0859375 0.265625 L 54.671875 0.265625 Z M 54.671875 51.832031 " fill-opacity="1" fill-rule="nonzero"/></g></g></g></g></g></g><g transform="matrix(1, 0, 0, 1, 504, 761)"><g clip-path="url(#673feaa4ac)"><g clip-path="url(#b9f15935da)"><g clip-path="url(#94477d3df8)"><g transform="matrix(1, 0, 0, 1, 89, 0.000000000000113687)"><g clip-path="url(#7174cc33e9)"><g clip-path="url(#f545d2bceb)"><g clip-path="url(#d3f3fa52cb)"><path fill="#ffffff" d="M 55.007812 52.460938 L 0.421875 52.460938 L 0.421875 0.894531 L 55.007812 0.894531 Z M 55.007812 52.460938 " fill-opacity="1" fill-rule="nonzero"/></g></g></g></g></g></g><g clip-path="url(#f6c8b6888e)"><g clip-path="url(#bad38317cb)"><g transform="matrix(1, 0, 0, 1, 178, 0.000000000000113687)"><g clip-path="url(#ab9e0bae04)"><g clip-path="url(#24710d1c03)"><g clip-path="url(#9917549e49)"><path fill="#ffffff" d="M 54.683594 52.460938 L 0.0976562 52.460938 L 0.0976562 0.894531 L 54.683594 0.894531 Z M 54.683594 52.460938 " fill-opacity="1" fill-rule="nonzero"/></g></g></g></g></g></g><g clip-path="url(#273f01b2f3)"><g clip-path="url(#c1609bca0e)"><g transform="matrix(1, 0, 0, 1, 266, 0.000000000000113687)"><g clip-path="url(#cae1b3ce19)"><g clip-path="url(#b08cafa647)"><g clip-path="url(#7b103c43a3)"><path fill="#ffffff" d="M 55.359375 52.460938 L 0.773438 52.460938 L 0.773438 0.894531 L 55.359375 0.894531 Z M 55.359375 52.460938 " fill-opacity="1" fill-rule="nonzero"/></g></g></g></g></g></g><g clip-path="url(#d275fb0ab8)"><g clip-path="url(#0deaea4012)"><g transform="matrix(1, 0, 0, 1, 0.000000000000056843, 0.000000000000113687)"><g clip-path="url(#1925694f85)"><g clip-path="url(#62609fdb7e)"><g clip-path="url(#74d79a220e)"><path fill="#ffffff" d="M 55.335938 52.460938 L 0.75 52.460938 L 0.75 0.894531 L 55.335938 0.894531 Z M 55.335938 52.460938 " fill-opacity="1" fill-rule="nonzero"/></g></g></g></g></g></g></g></g><g transform="matrix(1, 0, 0, 1, 504, 899)"><g clip-path="url(#37969347e6)"><g clip-path="url(#817ee7bed5)"><g clip-path="url(#71ef10de77)"><g transform="matrix(1, 0, 0, 1, 89, 0.000000000000113687)"><g clip-path="url(#8a72cd947e)"><g clip-path="url(#02fa166f89)"><g clip-path="url(#9354fef1f7)"><path fill="#ffffff" d="M 55.007812 52.320312 L 0.421875 52.320312 L 0.421875 0.753906 L 55.007812 0.753906 Z M 55.007812 52.320312 " fill-opacity="1" fill-rule="nonzero"/></g></g></g></g></g></g><g clip-path="url(#78ce1e7f97)"><g clip-path="url(#2804e43c1f)"><g transform="matrix(1, 0, 0, 1, 178, 0.000000000000113687)"><g clip-path="url(#c98b12b93e)"><g clip-path="url(#9a202d3097)"><g clip-path="url(#07070dd7ad)"><path fill="#ffffff" d="M 54.683594 52.320312 L 0.0976562 52.320312 L 0.0976562 0.753906 L 54.683594 0.753906 Z M 54.683594 52.320312 " fill-opacity="1" fill-rule="nonzero"/></g></g></g></g></g></g><g clip-path="url(#b3c422000f)"><g clip-path="url(#b6b166e909)"><g transform="matrix(1, 0, 0, 1, 266, 0.000000000000113687)"><g clip-path="url(#2e88d0eceb)"><g clip-path="url(#9221b2f514)"><g clip-path="url(#e83240791b)"><path fill="#ffffff" d="M 55.359375 52.320312 L 0.773438 52.320312 L 0.773438 0.753906 L 55.359375 0.753906 Z M 55.359375 52.320312 " fill-opacity="1" fill-rule="nonzero"/></g></g></g></g></g></g><g clip-path="url(#fd1f494176)"><g clip-path="url(#bb07ffe9ef)"><g transform="matrix(1, 0, 0, 1, 0.000000000000056843, 0.000000000000113687)"><g clip-path="url(#bc0eb468ac)"><g clip-path="url(#5f76f7b2e3)"><g clip-path="url(#fd216555fc)"><path fill="#ffffff" d="M 55.335938 52.320312 L 0.75 52.320312 L 0.75 0.753906 L 55.335938 0.753906 Z M 55.335938 52.320312 " fill-opacity="1" fill-rule="nonzero"/></g></g></g></g></g></g></g></g><g clip-path="url(#2b574966a5)"><g clip-path="url(#dd4e5fb718)"><g transform="matrix(1, 0, 0, 1, 636, 830)"><g clip-path="url(#1659259a49)"><g clip-path="url(#15a95f19ba)"><g clip-path="url(#4ada8c2e5c)"><path fill="#ffffff" d="M 55.300781 52.386719 L 0.714844 52.386719 L 0.714844 0.824219 L 55.300781 0.824219 Z M 55.300781 52.386719 " fill-opacity="1" fill-rule="nonzero"/></g></g></g></g></g></g><g clip-path="url(#d8b894698d)"><g clip-path="url(#76bcfa26df)"><g transform="matrix(1, 0, 0, 1, 725, 830)"><g clip-path="url(#bb55594b75)"><g clip-path="url(#943fb235a8)"><g clip-path="url(#b7874f8dd3)"><path fill="#ffffff" d="M 54.972656 52.386719 L 0.386719 52.386719 L 0.386719 0.824219 L 54.972656 0.824219 Z M 54.972656 52.386719 " fill-opacity="1" fill-rule="nonzero"/></g></g></g></g></g></g><g clip-path="url(#b6640ea995)"><g clip-path="url(#f469418689)"><g transform="matrix(1, 0, 0, 1, 548, 830)"><g clip-path="url(#23072f341f)"><g clip-path="url(#7c85c45851)"><g clip-path="url(#bcb0eb249f)"><path fill="#ffffff" d="M 54.625 52.386719 L 0.0390625 52.386719 L 0.0390625 0.824219 L 54.625 0.824219 Z M 54.625 52.386719 " fill-opacity="1" fill-rule="nonzero"/></g></g></g></g></g></g><g clip-path="url(#3bf99bb2ba)"><g transform="matrix(1, 0, 0, 1, 1017, 1364)"><g clip-path="url(#218a9f6b24)"><g clip-path="url(#91a61176b8)"><path fill="#ff6100" d="M 0.90625 0.84375 L 81.367188 0.84375 L 81.367188 19.914062 L 0.90625 19.914062 Z M 0.90625 0.84375 " fill-opacity="1" fill-rule="nonzero"/></g></g></g></g><g clip-path="url(#050c5e4c57)"><g transform="matrix(1, 0, 0, 1, 1017, 1236)"><g clip-path="url(#562ebd6eab)"><g clip-path="url(#7052983398)"><path fill="#ff6100" d="M 0.90625 0.84375 L 81.367188 0.84375 L 81.367188 19.914062 L 0.90625 19.914062 Z M 0.90625 0.84375 " fill-opacity="1" fill-rule="nonzero"/></g></g></g></g><g clip-path="url(#733636e071)"><g transform="matrix(1, 0, 0, 1, 1017, 1322)"><g clip-path="url(#f24ce52f73)"><g clip-path="url(#d609ddbbdc)"><path fill="#ff6100" d="M 0.90625 0.175781 L 81.367188 0.175781 L 81.367188 19.25 L 0.90625 19.25 Z M 0.90625 0.175781 " fill-opacity="1" fill-rule="nonzero"/></g></g></g></g><g clip-path="url(#3658ad390b)"><g transform="matrix(1, 0, 0, 1, 1017, 1194)"><g clip-path="url(#ad58e3a79e)"><g clip-path="url(#cdb0a4f439)"><path fill="#ff6100" d="M 0.90625 0.175781 L 81.367188 0.175781 L 81.367188 19.25 L 0.90625 19.25 Z M 0.90625 0.175781 " fill-opacity="1" fill-rule="nonzero"/></g></g></g></g><g clip-path="url(#1dab1ddbfc)"><g transform="matrix(1, 0, 0, 1, 1017, 1279)"><g clip-path="url(#d645cd51b3)"><g clip-path="url(#723d297f93)"><path fill="#ff6100" d="M 0.90625 0.507812 L 81.367188 0.507812 L 81.367188 19.582031 L 0.90625 19.582031 Z M 0.90625 0.507812 " fill-opacity="1" fill-rule="nonzero"/></g></g></g></g><g clip-path="url(#ba714e3b67)"><g transform="matrix(1, 0, 0, 1, 1017, 1151)"><g clip-path="url(#4bee41ff2e)"><g clip-path="url(#d6edf46646)"><path fill="#ff6100" d="M 0.90625 0.511719 L 81.367188 0.511719 L 81.367188 19.582031 L 0.90625 19.582031 Z M 0.90625 0.511719 " fill-opacity="1" fill-rule="nonzero"/></g></g></g></g><g transform="matrix(1, 0, 0, 1, 808, 971)"><g clip-path="url(#fd8c5d5b79)"><g fill="#1649ff" fill-opacity="1"><g transform="translate(0.580061, 158.332239)"><g><path d="M 85.65625 -106.046875 L 85.65625 -85.34375 L 57.5625 -85.34375 L 57.5625 0 L 31.71875 0 L 31.71875 -85.34375 L 3.625 -85.34375 L 3.625 -106.046875 Z M 85.65625 -106.046875 "/></g></g></g><g fill="#1649ff" fill-opacity="1"><g transform="translate(89.851011, 158.332239)"><g><path d="M 101.21875 -106.046875 L 101.21875 0 L 75.375 0 L 75.375 -43.65625 L 35.203125 -43.65625 L 35.203125 0 L 9.359375 0 L 9.359375 -106.046875 L 35.203125 -106.046875 L 35.203125 -64.5 L 75.375 -64.5 L 75.375 -106.046875 Z M 101.21875 -106.046875 "/></g></g></g></g></g><g transform="matrix(1, 0, 0, 1, 896, 1220)"><g clip-path="url(#617ea85596)"><g fill="#1649ff" fill-opacity="1"><g transform="translate(1.087319, 164.048018)"><g><path d="M 104.390625 -109.375 L 104.390625 0 L 77.75 0 L 77.75 -45.03125 L 36.296875 -45.03125 L 36.296875 0 L 9.65625 0 L 9.65625 -109.375 L 36.296875 -109.375 L 36.296875 -66.53125 L 77.75 -66.53125 L 77.75 -109.375 Z M 104.390625 -109.375 "/></g></g></g><g fill="#1649ff" fill-opacity="1"><g transform="translate(110.628227, 164.048018)"><g/></g></g><g fill="#1649ff" fill-opacity="1"><g transform="translate(139.297461, 164.048018)"><g/></g></g><g fill="#1649ff" fill-opacity="1"><g transform="translate(167.966694, 164.048018)"><g/></g></g><g fill="#1649ff" fill-opacity="1"><g transform="translate(196.635928, 164.048018)"><g/></g></g><g fill="#1649ff" fill-opacity="1"><g transform="translate(225.308514, 164.048018)"><g><path d="M 77.75 -19.328125 L 36.921875 -19.328125 L 30.390625 0 L 2.5 0 L 42.0625 -109.375 L 72.921875 -109.375 L 112.5 0 L 84.296875 0 Z M 70.890625 -39.890625 L 57.34375 -79.9375 L 43.9375 -39.890625 Z M 70.890625 -39.890625 "/></g></g></g><g fill="#1649ff" fill-opacity="1"><g transform="translate(335.77876, 164.048018)"><g><path d="M 88.34375 -109.375 L 88.34375 -88.03125 L 59.359375 -88.03125 L 59.359375 0 L 32.71875 0 L 32.71875 -88.03125 L 3.734375 -88.03125 L 3.734375 -109.375 Z M 88.34375 -109.375 "/></g></g></g></g></g><g fill="#1649ff" fill-opacity="1"><g transform="translate(801.380004, 1257.710032)"><g><path d="M 49.203125 1.09375 C 41.210938 1.09375 34.050781 -0.203125 27.71875 -2.796875 C 21.382812 -5.398438 16.320312 -9.242188 12.53125 -14.328125 C 8.75 -19.410156 6.753906 -25.535156 6.546875 -32.703125 L 34.875 -32.703125 C 35.289062 -28.648438 36.691406 -25.5625 39.078125 -23.4375 C 41.472656 -21.3125 44.585938 -20.25 48.421875 -20.25 C 52.367188 -20.25 55.484375 -21.15625 57.765625 -22.96875 C 60.054688 -24.78125 61.203125 -27.296875 61.203125 -30.515625 C 61.203125 -33.210938 60.289062 -35.441406 58.46875 -37.203125 C 56.65625 -38.972656 54.425781 -40.429688 51.78125 -41.578125 C 49.132812 -42.722656 45.367188 -44.019531 40.484375 -45.46875 C 33.421875 -47.644531 27.65625 -49.820312 23.1875 -52 C 18.726562 -54.1875 14.890625 -57.40625 11.671875 -61.65625 C 8.460938 -65.914062 6.859375 -71.472656 6.859375 -78.328125 C 6.859375 -88.503906 10.539062 -96.472656 17.90625 -102.234375 C 25.28125 -107.992188 34.882812 -110.875 46.71875 -110.875 C 58.757812 -110.875 68.460938 -107.992188 75.828125 -102.234375 C 83.203125 -96.472656 87.148438 -88.453125 87.671875 -78.171875 L 58.859375 -78.171875 C 58.648438 -81.703125 57.351562 -84.476562 54.96875 -86.5 C 52.582031 -88.519531 49.519531 -89.53125 45.78125 -89.53125 C 42.5625 -89.53125 39.960938 -88.675781 37.984375 -86.96875 C 36.015625 -85.257812 35.03125 -82.796875 35.03125 -79.578125 C 35.03125 -76.046875 36.691406 -73.289062 40.015625 -71.3125 C 43.335938 -69.34375 48.53125 -67.21875 55.59375 -64.9375 C 62.65625 -62.550781 68.390625 -60.265625 72.796875 -58.078125 C 77.210938 -55.898438 81.03125 -52.734375 84.25 -48.578125 C 87.46875 -44.429688 89.078125 -39.085938 89.078125 -32.546875 C 89.078125 -26.316406 87.492188 -20.65625 84.328125 -15.5625 C 81.160156 -10.476562 76.566406 -6.429688 70.546875 -3.421875 C 64.523438 -0.410156 57.410156 1.09375 49.203125 1.09375 Z M 49.203125 1.09375 "/></g></g></g><g fill="#1649ff" fill-opacity="1"><g transform="translate(897.139842, 1257.710032)"><g><path d="M 104.328125 -109.3125 L 104.328125 0 L 77.703125 0 L 77.703125 -45 L 36.28125 -45 L 36.28125 0 L 9.65625 0 L 9.65625 -109.3125 L 36.28125 -109.3125 L 36.28125 -66.484375 L 77.703125 -66.484375 L 77.703125 -109.3125 Z M 104.328125 -109.3125 "/></g></g></g><g fill="#1649ff" fill-opacity="1"><g transform="translate(1010.969834, 1257.710032)"><g/></g></g><g fill="#1649ff" fill-opacity="1"><g transform="translate(1043.97973, 1257.710032)"><g/></g></g><g fill="#1649ff" fill-opacity="1"><g transform="translate(1076.989627, 1257.710032)"><g/></g></g><g fill="#1649ff" fill-opacity="1"><g transform="translate(1110.004978, 1257.710032)"><g><path d="M 36.28125 -87.984375 L 36.28125 -65.875 L 71.9375 -65.875 L 71.9375 -45.3125 L 36.28125 -45.3125 L 36.28125 -21.328125 L 76.609375 -21.328125 L 76.609375 0 L 9.65625 0 L 9.65625 -109.3125 L 76.609375 -109.3125 L 76.609375 -87.984375 Z M 36.28125 -87.984375 "/></g></g></g><g fill="#1649ff" fill-opacity="1"><g transform="translate(1194.242492, 1257.710032)"><g><path d="M 36.28125 -87.984375 L 36.28125 -65.875 L 71.9375 -65.875 L 71.9375 -45.3125 L 36.28125 -45.3125 L 36.28125 -21.328125 L 76.609375 -21.328125 L 76.609375 0 L 9.65625 0 L 9.65625 -109.3125 L 76.609375 -109.3125 L 76.609375 -87.984375 Z M 36.28125 -87.984375 "/></g></g></g><g fill="#1649ff" fill-opacity="1"><g transform="translate(1278.480007, 1257.710032)"><g><path d="M 88.296875 -109.3125 L 88.296875 -87.984375 L 59.328125 -87.984375 L 59.328125 0 L 32.703125 0 L 32.703125 -87.984375 L 3.734375 -87.984375 L 3.734375 -109.3125 Z M 88.296875 -109.3125 "/></g></g></g><g clip-path="url(#de135ab48b)"><g transform="matrix(1, 0, 0, 1, 1017, 1108)"><g clip-path="url(#33d4349f66)"><g clip-path="url(#03f3746e05)"><path fill="#1649ff" d="M 0.90625 0.84375 L 81.367188 0.84375 L 81.367188 19.917969 L 0.90625 19.917969 Z M 0.90625 0.84375 " fill-opacity="1" fill-rule="nonzero"/></g></g></g></g><g clip-path="url(#296ef7c965)"><g transform="matrix(1, 0, 0, 1, 1017, 1066)"><g clip-path="url(#d757f0d9ad)"><g clip-path="url(#1274139531)"><path fill="#ff6100" d="M 0.90625 0.175781 L 81.367188 0.175781 L 81.367188 19.25 L 0.90625 19.25 Z M 0.90625 0.175781 " fill-opacity="1" fill-rule="nonzero"/></g></g></g></g><g clip-path="url(#98c690e743)"><g transform="matrix(1, 0, 0, 1, 1017, 1023)"><g clip-path="url(#b524b70e39)"><g clip-path="url(#a6022fc950)"><path fill="#ee0000" d="M 0.90625 0.511719 L 81.367188 0.511719 L 81.367188 19.582031 L 0.90625 19.582031 Z M 0.90625 0.511719 " fill-opacity="1" fill-rule="nonzero"/></g></g></g></g><g clip-path="url(#7f72361ab4)"><g transform="matrix(1, 0, 0, 1, 1017, 1237)"><g clip-path="url(#59ee7550f9)"><g clip-path="url(#53fd0da5d6)"><path fill="#1649ff" d="M 0.90625 0.1875 L 81.367188 0.1875 L 81.367188 19.257812 L 0.90625 19.257812 Z M 0.90625 0.1875 " fill-opacity="1" fill-rule="nonzero"/></g></g></g></g><g clip-path="url(#4e646189a7)"><g transform="matrix(1, 0, 0, 1, 1017, 1194)"><g clip-path="url(#22f2629b0c)"><g clip-path="url(#3e719293dd)"><path fill="#ff6100" d="M 0.90625 0.519531 L 81.367188 0.519531 L 81.367188 19.59375 L 0.90625 19.59375 Z M 0.90625 0.519531 " fill-opacity="1" fill-rule="nonzero"/></g></g></g></g><g clip-path="url(#74eb081b44)"><g transform="matrix(1, 0, 0, 1, 1017, 1151)"><g clip-path="url(#6033334c4b)"><g clip-path="url(#03e6005b19)"><path fill="#ee0000" d="M 0.90625 0.855469 L 81.367188 0.855469 L 81.367188 19.925781 L 0.90625 19.925781 Z M 0.90625 0.855469 " fill-opacity="1" fill-rule="nonzero"/></g></g></g></g><g clip-path="url(#a9c2663773)"><g transform="matrix(1, 0, 0, 1, 1017, 1364)"><g clip-path="url(#5a8b67b4f8)"><g clip-path="url(#a5a6e0383b)"><path fill="#1649ff" d="M 0.90625 0.84375 L 81.367188 0.84375 L 81.367188 19.914062 L 0.90625 19.914062 Z M 0.90625 0.84375 " fill-opacity="1" fill-rule="nonzero"/></g></g></g></g><g clip-path="url(#a903f2ff77)"><g transform="matrix(1, 0, 0, 1, 1017, 1322)"><g clip-path="url(#ad82428b1c)"><g clip-path="url(#283b33d3b6)"><path fill="#ff6100" d="M 0.90625 0.175781 L 81.367188 0.175781 L 81.367188 19.25 L 0.90625 19.25 Z M 0.90625 0.175781 " fill-opacity="1" fill-rule="nonzero"/></g></g></g></g><g clip-path="url(#8ed1246f1f)"><g transform="matrix(1, 0, 0, 1, 1017, 1279)"><g clip-path="url(#43ff4aa266)"><g clip-path="url(#eb198d59ce)"><path fill="#ee0000" d="M 0.90625 0.507812 L 81.367188 0.507812 L 81.367188 19.582031 L 0.90625 19.582031 Z M 0.90625 0.507812 " fill-opacity="1" fill-rule="nonzero"/></g></g></g></g></svg>